<?xml version="1.0" encoding="utf-8"?>
<!-- Generator: Adobe Illustrator 26.3.1, SVG Export Plug-In . SVG Version: 6.00 Build 0)  -->
<svg version="1.1" id="レイヤー_1" xmlns="http://www.w3.org/2000/svg" xmlns:xlink="http://www.w3.org/1999/xlink" x="0px"
	 y="0px" viewBox="0 0 1045.6 360" style="enable-background:new 0 0 1045.6 360;" xml:space="preserve">
<style type="text/css">
	.st0{fill:#CBC164;}
	.st1{fill:#FFF9F9;}
	.st2{fill:#FFFFFF;}
	.st3{fill:#D6D3D0;}
	.st4{fill:#222222;}
	.st5{fill:#313232;}
	.st6{fill:#252525;}
	.st7{fill:#323232;}
	.st8{fill:none;stroke:#000000;stroke-width:5;stroke-linecap:round;stroke-linejoin:round;stroke-miterlimit:10;}
	.st9{fill:#FFFFFF;stroke:#000000;stroke-width:5;stroke-linecap:round;stroke-linejoin:round;stroke-miterlimit:10;}
	.st10{fill:#F8EDD8;}
	.st11{fill:#F9EFDB;}
	.st12{fill:#202020;}
	.st13{fill:#D8D4D1;}
	.st14{fill:#D57869;}
	.st15{fill:#9C99A4;}
	.st16{fill:#FDF8F9;}
</style>
<path class="st0" d="M452.01,101.18c0,0-7.65-9.61-5.54-21.41c2.11-11.81,4.82-11.64,6.65-11.69c1.83-0.06,7.65,5.93,9.48,14.47
	c1.83,8.54,0.83,13.3,0.83,13.3L452.01,101.18z"/>
<path class="st7" d="M452.18,102.68c-0.07,0-0.15,0-0.22-0.02c-2.9-0.4-5.78-6.69-6.56-12.09c-0.83-5.76-0.72-11.33,0.32-15.68
	c1.15-4.84,3.38-7.74,6.27-8.15c2.89-0.42,5.85,1.73,8.32,6.05c2.22,3.88,3.9,9.19,4.73,14.96c0.86,5.94,0.27,8.83-2.02,9.96
	c-0.79,0.39-1.75,0.07-2.14-0.72c-0.39-0.79-0.07-1.75,0.72-2.14c0.27-0.13,1.1-1.01,0.28-6.65c-0.77-5.37-2.32-10.29-4.34-13.83
	c-1.72-3.02-3.63-4.69-5.09-4.48c-1.46,0.21-2.82,2.35-3.62,5.73c-0.94,3.97-1.04,9.12-0.26,14.49c0.74,5.13,3.1,8.91,3.95,9.4
	c0.81,0.17,1.37,0.94,1.25,1.78C453.64,102.1,452.96,102.68,452.18,102.68z M452.39,99.5C452.4,99.5,452.4,99.5,452.39,99.5
	C452.4,99.5,452.4,99.5,452.39,99.5z"/>
<path class="st0" d="M551.81,101.18c0,0,7.65-9.61,5.54-21.41c-2.11-11.81-4.82-11.64-6.65-11.69c-1.83-0.06-7.65,5.93-9.48,14.47
	s-0.83,13.3-0.83,13.3L551.81,101.18z"/>
<path class="st7" d="M551.87,102.32c-0.78,0-1.47-0.58-1.58-1.38c-0.12-0.83,0.44-1.61,1.25-1.78c0.85-0.5,3.21-4.27,3.95-9.4
	c0.77-5.37,0.68-10.52-0.26-14.49c-0.8-3.38-2.16-5.52-3.62-5.73c-1.47-0.21-3.37,1.46-5.09,4.48c-2.03,3.54-3.57,8.45-4.34,13.83
	c-0.81,5.64,0.01,6.52,0.28,6.65c0.79,0.39,1.11,1.35,0.72,2.14c-0.39,0.79-1.35,1.11-2.14,0.72c-2.29-1.14-2.88-4.02-2.02-9.96
	c0.83-5.76,2.51-11.07,4.73-14.96c2.47-4.32,5.42-6.47,8.32-6.05c2.89,0.42,5.12,3.31,6.27,8.15c1.03,4.35,1.15,9.92,0.32,15.68
	c-0.78,5.39-3.66,11.68-6.56,12.09C552.02,102.32,551.94,102.32,551.87,102.32z M551.65,99.15
	C551.65,99.15,551.65,99.15,551.65,99.15C551.65,99.15,551.65,99.15,551.65,99.15z"/>
<path class="st1" d="M422.49,162.49c0,0-13.64,7.34-13.64,48.25s1.57,39.23,1.57,39.23l11.24-4.13
	C421.66,245.84,421.63,170.68,422.49,162.49z"/>
<g>
	<circle class="st2" cx="961.13" cy="53.3" r="42.77"/>
	<path class="st7" d="M961.13,97.57c-24.41,0-44.27-19.86-44.27-44.27s19.86-44.27,44.27-44.27s44.27,19.86,44.27,44.27
		S985.54,97.57,961.13,97.57z M961.13,12.03c-22.75,0-41.27,18.51-41.27,41.27s18.51,41.27,41.27,41.27s41.27-18.51,41.27-41.27
		S983.88,12.03,961.13,12.03z"/>
</g>
<g>
	<polyline class="st2" points="960.61,34.66 960.61,57.97 983.21,57.97 	"/>
	<path class="st7" d="M983.21,59.47h-22.6c-0.83,0-1.5-0.67-1.5-1.5V34.66c0-0.83,0.67-1.5,1.5-1.5s1.5,0.67,1.5,1.5v21.81h21.1
		c0.83,0,1.5,0.67,1.5,1.5S984.04,59.47,983.21,59.47z"/>
</g>
<path class="st1" d="M544.99,322.79c-0.58,0-1.27-0.12-1.99-0.51c-2.03-1.08-3.35-3.77-3.93-7.99c-1.08-7.82-3.77-9.08-9.81-9.08
	H475.6c-7.37,0-8.93,2.68-9.81,9.08c-0.58,4.22-1.91,6.91-3.93,7.99c-1.37,0.73-2.62,0.51-3.26,0.31h-22.11l-0.44-0.9
	c-7.22-14.84-12.13-38.87-14.57-71.45c-2.04-27.18-2-54.83-1.97-73.12c0-1.98,0.01-3.86,0.01-5.62c0-16.06,2.19-29.9,6.5-41.13
	c4.03-10.49,10.05-19.07,17.9-25.52c13.34-10.95,32.47-16.27,58.51-16.27c26.05,0,45.19,5.32,58.52,16.27
	c7.85,6.45,13.88,15.03,17.9,25.52c4.31,11.23,6.5,25.07,6.5,41.13c0,1.76,0,3.64,0.01,5.62c0.03,18.29,0.07,45.94-1.97,73.12
	c-2.44,32.57-7.34,56.61-14.57,71.45l-0.44,0.9h-22.11C545.96,322.69,545.52,322.79,544.99,322.79z"/>
<path class="st12" d="M592.76,290.03c-4.38-12.84-16.12-14.12-16.62-14.17l0.3-3.18c0.58,0.05,14.28,1.48,19.34,16.32L592.76,290.03
	z"/>
<path class="st5" d="M502.87,233.44c-0.73,9.91-13.04,11.53-24.94,10.65s-18.87-3.92-18.13-13.83s10.97-17.24,22.86-16.36
	C494.55,214.78,503.6,223.52,502.87,233.44z"/>
<path class="st5" d="M459.95,207.18c0,5.39-6.6,6.76-13.07,6.76c-6.47,0-10.36-2.99-10.36-8.39s5.24-8.13,11.71-8.13
	C454.7,197.42,459.95,201.79,459.95,207.18z"/>
<path class="st5" d="M415.67,224.02c0,3.44-2.23,4.31-4.41,4.31c-2.18,0-3.5-1.91-3.5-5.34c0-3.44,1.77-5.18,3.96-5.18
	C413.9,217.8,415.67,220.59,415.67,224.02z"/>
<path class="st5" d="M579.75,271.8c-0.42,5.41,0.46,6.86-9.78,6.06c-10.24-0.8-16.29-2.65-15.87-8.06c0.42-5.41,9.06-9.15,19.3-8.35
	C583.64,262.25,580.18,266.39,579.75,271.8z"/>
<path class="st5" d="M538.69,311.04c0.22,2.88-0.24,3.65,5.2,3.22c5.45-0.42,8.67-1.41,8.44-4.29s-4.82-4.87-10.27-4.44
	C536.62,305.95,538.46,308.16,538.69,311.04z"/>
<path class="st5" d="M551.85,102.09c0,0,9.69-9.99,15.69-15.41s13.86-6.92,20.2-2.37c6.85,4.92,15.4,11.37,19.54,14.74
	c5.17,4.21,3.1,19.34-16.91,19.34S551.85,102.09,551.85,102.09z"/>
<path class="st5" d="M451.63,102.09c0,0-9.69-9.99-15.69-15.41s-13.86-6.92-20.2-2.37c-6.85,4.92-15.4,11.37-19.54,14.74
	c-5.17,4.21-3.1,19.34,16.91,19.34C433.13,118.38,451.63,102.09,451.63,102.09z"/>
<path class="st11" d="M410.61,247.98l12.35-0.89l1.45,16.79l-4.38-1.83l-2.27,2.66C417.76,264.72,412.27,261.23,410.61,247.98z"/>
<rect x="668.76" y="213.5" class="st13" width="341.7" height="15.17"/>
<rect x="676.32" y="226.98" class="st13" width="326.58" height="121.3"/>
<path class="st5" d="M1007.46,216.5v9.17h-335.7v-9.17H1007.46 M1010.46,213.5h-341.7v15.17h341.7V213.5L1010.46,213.5z"/>
<rect x="1001.4" y="227.89" class="st5" width="3" height="120.42"/>
<rect x="674.01" y="227.89" class="st5" width="3" height="120.42"/>
<path class="st1" d="M582.07,162.49c0,0,13.64,7.34,13.64,48.25s-1.57,39.23-1.57,39.23l-11.24-4.13
	C582.89,245.84,582.93,170.68,582.07,162.49z"/>
<path class="st3" d="M458.34,172.69c0,0,0-12.71,0-15.8c0-3.09,3.18-14.07,15.44-14.07c12.26,0,50.6,0,57.84,0
	c7.24,0,14.89,5.9,14.89,12.08s0,13.35,0,16.07c0,2.72-1.36,7.72-6.99,7.72c-5.63,0-72.01,0-75,0S458.34,175.41,458.34,172.69z"/>
<path class="st5" d="M515.08,169.04L515.08,169.04c-1.82,0-3.32-1.49-3.32-3.32v-10.85c0-1.82,1.49-3.32,3.32-3.32l0,0
	c1.82,0,3.32,1.49,3.32,3.32v10.85C518.4,167.55,516.91,169.04,515.08,169.04z"/>
<path class="st5" d="M491.26,169.04L491.26,169.04c-1.82,0-3.32-1.49-3.32-3.32v-10.85c0-1.82,1.49-3.32,3.32-3.32l0,0
	c1.82,0,3.32,1.49,3.32,3.32v10.85C494.58,167.55,493.09,169.04,491.26,169.04z"/>
<path class="st2" d="M468.68,142.81c0,0,0-14.35,0-18.14c0-3.79,3.29-6.88,7.15-6.88c3.86,0,8.14,0,11.44,0
	c3.29,0,6.34,2.97,6.34,6.07s0,18.95,0,18.95H468.68z"/>
<path class="st2" d="M510.81,142.81c0,0,0-14.35,0-18.14c0-3.79,3.29-6.88,7.15-6.88s8.14,0,11.44,0c3.29,0,6.34,2.97,6.34,6.07
	s0,18.95,0,18.95H510.81z"/>
<g>
	<path class="st5" d="M495.72,143.11h-3.19V125.6c0-3.17-2.58-5.76-5.76-5.76H476.6c-3.17,0-5.76,2.58-5.76,5.76v17.51h-3.19V125.6
		c0-4.93,4.01-8.95,8.95-8.95h10.17c4.93,0,8.95,4.01,8.95,8.95V143.11z"/>
	<path class="st5" d="M476.27,141.43v-9.05c0-1.99,1.62-3.61,3.61-3.61h3.31c1.99,0,3.61,1.62,3.61,3.61v9.05"/>
</g>
<g>
	<path class="st5" d="M537.18,143.11h-3.19V125.6c0-3.17-2.58-5.76-5.76-5.76h-10.17c-3.17,0-5.76,2.58-5.76,5.76v17.51h-3.19V125.6
		c0-4.93,4.01-8.95,8.95-8.95h10.17c4.93,0,8.95,4.01,8.95,8.95V143.11z"/>
	<path class="st5" d="M517.73,141.43v-9.05c0-1.99,1.62-3.61,3.61-3.61h3.31c1.99,0,3.61,1.62,3.61,3.61v9.05"/>
</g>
<path class="st5" d="M540.46,180.28h-76.08c-4.51,0-8.18-3.67-8.18-8.18v-15.31c0-8.59,6.99-15.58,15.58-15.58h61.28
	c8.59,0,15.58,6.99,15.58,15.58v15.31C548.64,176.61,544.97,180.28,540.46,180.28z M471.78,144.4c-6.83,0-12.39,5.56-12.39,12.39
	v15.31c0,2.75,2.24,4.99,4.99,4.99h76.08c2.75,0,4.99-2.24,4.99-4.99v-15.31c0-6.83-5.56-12.39-12.39-12.39H471.78z"/>
<path class="st5" d="M417.74,266.19c-2.36,0-3.7-2.8-4.15-3.73c-3.59-7.5-4.27-13.66-4.29-13.92c-0.09-0.88,0.54-1.66,1.42-1.75
	c0.87-0.09,1.66,0.54,1.75,1.42c0.01,0.07,0.67,5.91,4,12.88c0.64,1.33,1.1,1.76,1.27,1.88c0.26-0.21,0.69-0.87,0.9-1.43
	c0.15-0.4,0.46-0.73,0.86-0.91c0.4-0.17,0.85-0.18,1.25-0.01l3.83,1.59c0.81,0.34,1.2,1.27,0.86,2.09c-0.34,0.81-1.27,1.2-2.09,0.86
	l-2.46-1.03c-0.61,0.95-1.6,1.99-3,2.06C417.84,266.19,417.79,266.19,417.74,266.19z"/>
<path class="st5" d="M410.89,249.97h-1.32l-0.25-1.3c-2.18-11.53-2.71-30.72-1.3-46.68c1.3-14.7,3.1-25.26,8.39-35.71
	c1.23-2.43,2.68-4.47,4.32-6.06l2.23,2.28c-1.38,1.35-2.63,3.1-3.7,5.22c-5.06,10-6.79,20.24-8.06,34.55
	c-1.32,14.85-0.88,33.23,1.02,44.48c1.9-0.06,5.62-0.27,9.91-0.91l0.47,3.15C416.18,249.95,411.1,249.97,410.89,249.97z"/>
<path class="st11" d="M594.5,247.98l-12.35-0.89l-1.45,16.79l4.38-1.83l2.27,2.66C587.35,264.72,592.83,261.23,594.5,247.98z"/>
<path class="st5" d="M587.28,266.19c-0.05,0-0.09,0-0.14,0c-1.41-0.07-2.39-1.11-3-2.06l-2.46,1.03c-0.81,0.34-1.75-0.05-2.09-0.86
	c-0.34-0.81,0.05-1.75,0.86-2.09l3.83-1.59c0.4-0.17,0.85-0.16,1.25,0.01c0.4,0.17,0.71,0.5,0.86,0.91c0.21,0.56,0.63,1.22,0.9,1.43
	c0.18-0.12,0.63-0.55,1.27-1.88c3.33-6.97,3.99-12.82,4-12.88c0.09-0.87,0.88-1.51,1.75-1.42c0.88,0.09,1.51,0.88,1.42,1.75
	c-0.03,0.26-0.71,6.42-4.29,13.92C590.98,263.39,589.64,266.19,587.28,266.19z"/>
<path class="st5" d="M544.99,322.79c-0.58,0-1.27-0.12-1.99-0.51c-2.03-1.08-3.35-3.77-3.93-7.99c-1.08-7.82-3.77-9.08-9.81-9.08
	H475.6c-7.37,0-8.93,2.68-9.81,9.08c-0.58,4.22-1.91,6.91-3.93,7.99c-1.37,0.73-2.62,0.51-3.26,0.31h-22.11l-0.44-0.9
	c-7.22-14.84-12.13-38.87-14.57-71.45c-2.04-27.18-2-54.83-1.97-73.12c0-1.98,0.01-3.86,0.01-5.62c0-16.06,2.19-29.9,6.5-41.13
	c4.03-10.49,10.05-19.07,17.9-25.52c13.34-10.95,32.47-16.27,58.51-16.27c26.05,0,45.19,5.32,58.52,16.27
	c7.85,6.45,13.88,15.03,17.9,25.52c4.31,11.23,6.5,25.07,6.5,41.13c0,1.76,0,3.64,0.01,5.62c0.03,18.29,0.07,45.94-1.97,73.12
	c-2.44,32.57-7.34,56.61-14.57,71.45l-0.44,0.9h-22.11C545.96,322.69,545.52,322.79,544.99,322.79z M475.6,302.02h53.66
	c7,0,11.61,1.98,12.97,11.84c0.58,4.21,1.75,5.31,2.23,5.59c0.4,0.23,0.73,0.15,0.84,0.11l0.35-0.2l0.33,0.05h20.39
	c15.95-34.04,15.84-107.03,15.79-142.27c0-1.99-0.01-3.87-0.01-5.63c0-15.67-2.11-29.12-6.28-39.98
	c-3.83-9.97-9.53-18.11-16.95-24.2c-12.74-10.46-31.22-15.55-56.49-15.55c-25.28,0-43.76,5.09-56.5,15.55
	c-7.42,6.09-13.12,14.23-16.95,24.2c-4.17,10.86-6.28,24.31-6.28,39.98c0,1.76,0,3.64-0.01,5.63
	c-0.05,35.24-0.16,108.23,15.79,142.27h20.82l0.25,0.15c0.11,0.04,0.45,0.12,0.84-0.11c0.48-0.28,1.65-1.38,2.23-5.59
	C463.98,304,468.6,302.02,475.6,302.02z M545.28,319.57C545.28,319.57,545.28,319.57,545.28,319.57L545.28,319.57z"/>
<path class="st14" d="M537.92,331.23c0,0-0.28-10.36,10.59-10.36c10.86,0,13.63,0,16.79,0s7.37,0.17,7.37,6.21
	c0,6.04,0,12.64,0,15.57c0,2.94-0.11,5.6-5.49,5.6s-27.66-1.11-27.66-1.11l-6.1,1.11c0,0-11.42-0.33-11.42-6.1
	C522.01,336.38,524.95,330.73,537.92,331.23z"/>
<path class="st14" d="M428.97,331.23c0,0-0.28-10.36,10.59-10.36s13.63,0,16.79,0c3.16,0,7.37,0.17,7.37,6.21
	c0,6.04,0,12.64,0,15.57c0,2.94-0.11,5.6-5.49,5.6c-5.38,0-27.66-1.11-27.66-1.11l-6.1,1.11c0,0-11.42-0.33-11.42-6.1
	C413.07,336.38,416,330.73,428.97,331.23z"/>
<path class="st5" d="M595.46,249.97h-1.32c-0.21,0-5.29-0.01-11.71-0.97l0.47-3.15c4.3,0.64,8.02,0.85,9.91,0.91
	c1.9-11.25,2.34-29.63,1.02-44.48c-1.27-14.31-3-24.56-8.06-34.55c-1.07-2.12-2.32-3.87-3.7-5.22l2.23-2.28
	c1.63,1.59,3.09,3.63,4.32,6.06c5.29,10.46,7.09,21.01,8.39,35.71c1.42,15.96,0.88,35.16-1.3,46.68L595.46,249.97z"/>
<path class="st12" d="M427.47,349.47h-7.97c-3.76,0-7.82-2.6-7.82-8.29c0-6.99,4.83-11.16,12.92-11.16h2.63
	c0.63-6.41,5.11-10.61,11.55-10.61h19.36c3.84,0,6.96,3.46,6.96,7.72v17.09c0,2.87-2.14,5.21-4.77,5.21h-28.4
	c-0.85,0-1.57-0.24-2.13-0.57C429.23,349.22,428.46,349.47,427.47,349.47z M424.6,333.2c-3.63,0-9.73,1.04-9.73,7.97
	c0,3.77,2.49,5.1,4.63,5.1h7.97c0.46,0,0.66-0.11,0.72-0.18c0.2-0.61,0.72-1.08,1.36-1.14c0.67-0.05,1.29,0.27,1.56,0.89
	c0.08,0.12,0.32,0.4,0.82,0.4h28.4c0.86,0,1.58-0.93,1.58-2.02v-17.09c0-2.5-1.69-4.53-3.77-4.53h-19.36c-5.2,0-8.44,3.45-8.44,9.01
	c0,0.88-0.71,1.59-1.59,1.59H424.6z M428.16,346.21C428.16,346.21,428.16,346.21,428.16,346.21
	C428.16,346.21,428.16,346.21,428.16,346.21z M428.16,346.21C428.16,346.21,428.16,346.21,428.16,346.21
	C428.16,346.21,428.16,346.21,428.16,346.21z M431.12,345.87L431.12,345.87L431.12,345.87z"/>
<path class="st12" d="M536.86,349.47h-7.97c-3.76,0-7.82-2.6-7.82-8.29c0-6.99,4.83-11.16,12.92-11.16h2.63
	c0.63-6.41,5.11-10.61,11.55-10.61h19.36c3.84,0,6.96,3.46,6.96,7.72v17.09c0,2.87-2.14,5.21-4.77,5.21h-28.4
	c-0.85,0-1.57-0.24-2.13-0.57C538.62,349.22,537.86,349.47,536.86,349.47z M533.99,333.2c-3.63,0-9.73,1.04-9.73,7.97
	c0,3.77,2.49,5.1,4.63,5.1h7.97c0.46,0,0.66-0.11,0.72-0.18c0.2-0.61,0.72-1.08,1.36-1.14c0.67-0.05,1.29,0.27,1.56,0.89
	c0.08,0.12,0.32,0.4,0.82,0.4h28.4c0.86,0,1.58-0.93,1.58-2.02v-17.09c0-2.5-1.69-4.53-3.77-4.53h-19.36c-5.2,0-8.44,3.45-8.44,9.01
	c0,0.88-0.71,1.59-1.59,1.59H533.99z M537.55,346.21C537.55,346.21,537.55,346.21,537.55,346.21
	C537.55,346.21,537.55,346.21,537.55,346.21z M537.55,346.21C537.55,346.21,537.55,346.21,537.55,346.21
	C537.55,346.21,537.55,346.21,537.55,346.21z M540.51,345.87L540.51,345.87L540.51,345.87z"/>
<path class="st3" d="M593.87,287.72c0,0-5.57,5.07-2.66,10.64c2.91,5.57,7.73,11.56,7.73,11.56s2.91-11.22,1.83-14.72
	S598.02,288.55,593.87,287.72z"/>
<path class="st5" d="M598.9,311.67c-0.41,0-0.8-0.16-1.09-0.46c-6.4-6.54-9.36-12.45-8.79-17.58c0.52-4.65,3.81-6.82,3.95-6.92
	c0.3-0.19,0.65-0.27,1-0.23c2.92,0.34,5.14,1.66,6.59,3.95c1.83,2.89,2.34,7.2,1.51,12.81c-0.6,4.04-1.68,7.26-1.72,7.39
	c-0.17,0.5-0.59,0.88-1.11,1C599.13,311.65,599.02,311.67,598.9,311.67z M594.23,289.6c-0.67,0.6-1.93,2.04-2.17,4.43
	c-0.37,3.64,1.74,8.13,6.13,13.1c1.09-4.32,2.14-11.37-0.21-15.07C597.13,290.72,595.9,289.92,594.23,289.6z"/>
<g>
	<path class="st15" d="M753.42,149.03l2.42-4.24h113.05l2.42,4.24l-2.27,60.39c0,0,1.86-0.66,1.86,2.77c0,3.43-4.11,2.77-4.11,2.77
		H756.6c0,0-2.77-0.1-2.77-2.77s1.86-2.77,1.86-2.77L753.42,149.03z"/>
	<g>
		<path class="st5" d="M868.13,216.46H756.6c-2.36,0-4.27-1.92-4.27-4.27s1.92-4.27,4.27-4.27h111.53c2.36,0,4.27,1.92,4.27,4.27
			S870.49,216.46,868.13,216.46z M756.6,210.92c-0.7,0-1.27,0.57-1.27,1.27s0.57,1.27,1.27,1.27h111.53c0.7,0,1.27-0.57,1.27-1.27
			s-0.57-1.27-1.27-1.27H756.6z"/>
		<path class="st5" d="M869.04,210.92H755.69c-0.81,0-1.47-0.64-1.5-1.44l-2.27-60.39c-0.01-0.28,0.06-0.56,0.2-0.8l2.42-4.24
			c0.27-0.47,0.76-0.76,1.3-0.76h113.05c0.54,0,1.04,0.29,1.3,0.76l2.42,4.24c0.14,0.24,0.21,0.52,0.2,0.8l-2.27,60.39
			C870.51,210.28,869.85,210.92,869.04,210.92z M757.14,207.92H867.6l2.2-58.51l-1.78-3.12H756.71l-1.78,3.12L757.14,207.92z"/>
		<path class="st5" d="M867.25,150.87H757.49c-0.83,0-1.5-0.67-1.5-1.5s0.67-1.5,1.5-1.5h109.76c0.83,0,1.5,0.67,1.5,1.5
			S868.07,150.87,867.25,150.87z"/>
		<path class="st5" d="M859.65,216.46c-0.83,0-1.5-0.67-1.5-1.5v-4.58c0-0.83,0.67-1.5,1.5-1.5s1.5,0.67,1.5,1.5v4.58
			C861.15,215.79,860.48,216.46,859.65,216.46z"/>
		<path class="st5" d="M850.8,216.46c-0.83,0-1.5-0.67-1.5-1.5v-4.58c0-0.83,0.67-1.5,1.5-1.5s1.5,0.67,1.5,1.5v4.58
			C852.3,215.79,851.63,216.46,850.8,216.46z"/>
		<path class="st5" d="M775.16,216.46c-0.83,0-1.5-0.67-1.5-1.5v-4.58c0-0.83,0.67-1.5,1.5-1.5s1.5,0.67,1.5,1.5v4.58
			C776.66,215.79,775.99,216.46,775.16,216.46z"/>
		<path class="st5" d="M766.32,216.46c-0.83,0-1.5-0.67-1.5-1.5v-4.58c0-0.83,0.67-1.5,1.5-1.5s1.5,0.67,1.5,1.5v4.58
			C767.82,215.79,767.14,216.46,766.32,216.46z"/>
	</g>
</g>
<g>
	<path class="st7" d="M1020.46,349.8H20.87c-0.83,0-1.5-0.67-1.5-1.5s0.67-1.5,1.5-1.5h999.58c0.83,0,1.5,0.67,1.5,1.5
		S1021.29,349.8,1020.46,349.8z"/>
</g>
</svg>
