<svg xmlns="http://www.w3.org/2000/svg" xmlns:xlink="http://www.w3.org/1999/xlink" width="220" zoomAndPan="magnify" viewBox="0 0 165 89.999999" height="120" preserveAspectRatio="xMidYMid meet" version="1.0"><defs><clipPath id="c368d685d6"><path d="M 58 80 L 73 80 L 73 89.636719 L 58 89.636719 Z M 58 80 " clip-rule="nonzero"/></clipPath><clipPath id="2298d82d8a"><path d="M 88 80 L 104 80 L 104 89.636719 L 88 89.636719 Z M 88 80 " clip-rule="nonzero"/></clipPath><clipPath id="47e76e1521"><path d="M 11 58 L 156 58 L 156 89.636719 L 11 89.636719 Z M 11 58 " clip-rule="nonzero"/></clipPath><clipPath id="aadda50b62"><path d="M 154 58 L 156 58 L 156 89.636719 L 154 89.636719 Z M 154 58 " clip-rule="nonzero"/></clipPath><clipPath id="32f2acde42"><path d="M 10 58 L 12 58 L 12 89.636719 L 10 89.636719 Z M 10 58 " clip-rule="nonzero"/></clipPath></defs><path fill="#cbc264" d="M 79.621094 11.144531 C 81.101562 9.03125 80.632812 6.234375 80.5 5.183594 C 80.371094 4.136719 79.640625 2.101562 78.636719 2.027344 C 77.636719 1.953125 76.789062 3.28125 76.234375 5.355469 C 75.675781 7.425781 76.1875 9.964844 76.1875 9.964844 Z M 79.621094 11.144531 " fill-opacity="1" fill-rule="nonzero"/><path fill="#313232" d="M 78.871094 11.320312 C 78.820312 11.089844 78.949219 10.863281 79.175781 10.792969 C 79.398438 10.632812 79.96875 9.53125 80.046875 8.082031 C 80.136719 6.566406 79.988281 5.136719 79.625 4.0625 C 79.324219 3.140625 78.894531 2.578125 78.480469 2.550781 C 78.0625 2.527344 77.574219 3.039062 77.171875 3.917969 C 76.695312 4.953125 76.382812 6.355469 76.296875 7.867188 C 76.203125 9.457031 76.457031 9.679688 76.539062 9.710938 C 76.769531 9.804688 76.878906 10.058594 76.792969 10.285156 C 76.699219 10.515625 76.445312 10.625 76.21875 10.539062 C 75.554688 10.28125 75.316406 9.488281 75.410156 7.816406 C 75.503906 6.195312 75.84375 4.679688 76.367188 3.542969 C 76.949219 2.28125 77.722656 1.613281 78.535156 1.660156 C 79.355469 1.703125 80.042969 2.460938 80.484375 3.777344 C 80.871094 4.964844 81.039062 6.503906 80.949219 8.132812 C 80.859375 9.648438 80.210938 11.46875 79.410156 11.652344 C 79.390625 11.660156 79.367188 11.660156 79.347656 11.667969 C 79.125 11.683594 78.921875 11.535156 78.871094 11.320312 Z M 79.207031 10.789062 Z M 79.207031 10.789062 " fill-opacity="1" fill-rule="nonzero"/><path fill="#cbc264" d="M 56.078125 11.144531 C 54.597656 9.03125 55.070312 6.234375 55.199219 5.183594 C 55.328125 4.136719 56.0625 2.101562 57.066406 2.027344 C 58.0625 1.953125 58.914062 3.28125 59.464844 5.355469 C 60.023438 7.425781 59.515625 9.964844 59.515625 9.964844 Z M 56.078125 11.144531 " fill-opacity="1" fill-rule="nonzero"/><path fill="#313232" d="M 56.359375 11.667969 C 56.339844 11.667969 56.316406 11.660156 56.296875 11.652344 C 55.496094 11.472656 54.84375 9.65625 54.757812 8.132812 C 54.664062 6.511719 54.832031 4.964844 55.222656 3.777344 C 55.664062 2.460938 56.351562 1.703125 57.171875 1.660156 C 57.988281 1.613281 58.757812 2.285156 59.339844 3.542969 C 59.867188 4.675781 60.203125 6.191406 60.296875 7.816406 C 60.386719 9.488281 60.160156 10.28125 59.488281 10.539062 C 59.261719 10.632812 59 10.515625 58.914062 10.285156 C 58.820312 10.058594 58.9375 9.796875 59.167969 9.710938 C 59.246094 9.679688 59.496094 9.457031 59.410156 7.867188 C 59.320312 6.351562 59.011719 4.953125 58.535156 3.917969 C 58.125 3.039062 57.636719 2.527344 57.226562 2.550781 C 56.8125 2.578125 56.382812 3.140625 56.078125 4.0625 C 55.71875 5.144531 55.570312 6.574219 55.65625 8.082031 C 55.738281 9.53125 56.300781 10.632812 56.53125 10.792969 C 56.753906 10.863281 56.890625 11.089844 56.835938 11.320312 C 56.78125 11.535156 56.574219 11.683594 56.359375 11.667969 Z M 56.496094 10.789062 Z M 56.496094 10.789062 " fill-opacity="1" fill-rule="nonzero"/><path fill="#fef9fa" d="M 45.621094 52.019531 C 45.621094 52.019531 44.675781 29.21875 45.625 25.414062 C 46.570312 21.609375 48.339844 9.210938 67.40625 9.210938 C 86.472656 9.210938 89.039062 19.753906 90.203125 25.105469 C 91.371094 30.457031 90.230469 52.019531 90.230469 52.019531 Z M 45.621094 52.019531 " fill-opacity="1" fill-rule="nonzero"/><path fill="#ffffff" d="M 58.628906 24.027344 C 58.628906 24.027344 58.628906 20.070312 58.628906 19.023438 C 58.628906 17.976562 59.539062 17.125 60.605469 17.125 C 61.671875 17.125 62.855469 17.125 63.765625 17.125 C 64.679688 17.125 65.523438 17.941406 65.523438 18.800781 C 65.523438 19.660156 65.523438 24.027344 65.523438 24.027344 Z M 58.628906 24.027344 " fill-opacity="1" fill-rule="nonzero"/><path fill="#d7d4d1" d="M 55.355469 32.3125 C 55.355469 32.3125 55.355469 28.710938 55.355469 27.839844 C 55.355469 26.96875 56.253906 23.855469 59.738281 23.855469 C 63.214844 23.855469 74.097656 23.855469 76.15625 23.855469 C 78.214844 23.855469 80.382812 25.527344 80.382812 27.277344 C 80.382812 29.027344 80.382812 31.058594 80.382812 31.832031 C 80.382812 32.605469 80 34.015625 78.398438 34.015625 C 76.800781 34.015625 57.964844 34.015625 57.113281 34.015625 C 56.265625 34.015625 55.355469 33.082031 55.355469 32.3125 Z M 55.355469 32.3125 " fill-opacity="1" fill-rule="nonzero"/><path fill="#ffffff" d="M 70.269531 24.027344 C 70.269531 24.027344 70.269531 20.070312 70.269531 19.023438 C 70.269531 17.976562 71.183594 17.125 72.25 17.125 C 73.316406 17.125 74.5 17.125 75.410156 17.125 C 76.320312 17.125 77.164062 17.941406 77.164062 18.800781 C 77.164062 19.660156 77.164062 24.027344 77.164062 24.027344 Z M 70.269531 24.027344 " fill-opacity="1" fill-rule="nonzero"/><path fill="#313232" d="M 78.558594 34.40625 L 57.277344 34.40625 C 56.015625 34.40625 54.988281 33.382812 54.988281 32.121094 L 54.988281 27.847656 C 54.988281 25.445312 56.941406 23.496094 59.347656 23.496094 L 76.488281 23.496094 C 78.894531 23.496094 80.847656 25.445312 80.847656 27.847656 L 80.847656 32.121094 C 80.847656 33.378906 79.820312 34.40625 78.558594 34.40625 Z M 59.347656 24.386719 C 57.4375 24.386719 55.878906 25.941406 55.878906 27.847656 L 55.878906 32.121094 C 55.878906 32.890625 56.507812 33.515625 57.277344 33.515625 L 78.558594 33.515625 C 79.328125 33.515625 79.957031 32.890625 79.957031 32.121094 L 79.957031 27.847656 C 79.957031 25.941406 78.398438 24.386719 76.488281 24.386719 Z M 59.347656 24.386719 " fill-opacity="1" fill-rule="nonzero"/><path fill="#313232" d="M 71.589844 31.261719 L 71.332031 31.261719 C 70.890625 31.261719 70.53125 30.902344 70.53125 30.464844 L 70.53125 27.171875 C 70.53125 26.734375 70.890625 26.375 71.332031 26.375 L 71.589844 26.375 C 72.03125 26.375 72.390625 26.734375 72.390625 27.171875 L 72.390625 30.464844 C 72.390625 30.902344 72.03125 31.261719 71.589844 31.261719 Z M 71.589844 31.261719 " fill-opacity="1" fill-rule="nonzero"/><path fill="#313232" d="M 64.925781 31.261719 L 64.667969 31.261719 C 64.226562 31.261719 63.867188 30.902344 63.867188 30.464844 L 63.867188 27.171875 C 63.867188 26.734375 64.226562 26.375 64.667969 26.375 L 64.925781 26.375 C 65.367188 26.375 65.726562 26.734375 65.726562 27.171875 L 65.726562 30.464844 C 65.726562 30.902344 65.367188 31.261719 64.925781 31.261719 Z M 64.925781 31.261719 " fill-opacity="1" fill-rule="nonzero"/><path fill="#313232" d="M 68.046875 51.097656 C 67.839844 53.863281 64.398438 54.316406 61.070312 54.074219 C 57.742188 53.832031 55.792969 52.980469 56 50.214844 C 56.203125 47.449219 59.066406 45.402344 62.390625 45.648438 C 65.714844 45.894531 68.25 48.328125 68.046875 51.097656 Z M 68.046875 51.097656 " fill-opacity="1" fill-rule="nonzero"/><path fill="#313232" d="M 56.035156 43.765625 C 56.035156 45.269531 54.1875 45.652344 52.382812 45.652344 C 50.574219 45.652344 49.484375 44.820312 49.484375 43.316406 C 49.484375 41.8125 50.953125 41.042969 52.757812 41.042969 C 54.574219 41.042969 56.035156 42.261719 56.035156 43.765625 Z M 56.035156 43.765625 " fill-opacity="1" fill-rule="nonzero"/><path fill="#313232" d="M 79.824219 74.183594 C 79.664062 74.183594 79.472656 74.152344 79.265625 74.042969 C 78.695312 73.738281 78.332031 72.992188 78.164062 71.808594 C 77.859375 69.625 77.109375 69.273438 75.417969 69.273438 L 60.40625 69.273438 C 58.347656 69.273438 57.910156 70.019531 57.660156 71.808594 C 57.5 72.984375 57.128906 73.738281 56.558594 74.042969 C 56.171875 74.246094 55.824219 74.183594 55.644531 74.128906 L 49.457031 74.128906 L 49.332031 73.882812 C 47.3125 69.742188 45.941406 63.027344 45.261719 53.9375 C 44.691406 46.351562 44.703125 38.636719 44.707031 33.527344 C 44.707031 32.96875 44.707031 32.449219 44.707031 31.953125 C 44.707031 27.46875 45.320312 23.609375 46.523438 20.476562 C 47.652344 17.550781 49.332031 15.148438 51.535156 13.355469 C 55.265625 10.296875 60.617188 8.8125 67.902344 8.8125 C 75.1875 8.8125 80.542969 10.296875 84.269531 13.355469 C 86.464844 15.15625 88.152344 17.550781 89.28125 20.476562 C 90.484375 23.613281 91.097656 27.476562 91.097656 31.953125 C 91.097656 32.445312 91.097656 32.96875 91.097656 33.527344 C 91.101562 38.632812 91.117188 46.351562 90.546875 53.9375 C 89.863281 63.027344 88.492188 69.742188 86.472656 73.882812 L 86.347656 74.128906 L 80.160156 74.128906 C 80.097656 74.152344 79.972656 74.183594 79.824219 74.183594 Z M 60.414062 68.386719 L 75.421875 68.386719 C 77.382812 68.386719 78.671875 68.9375 79.050781 71.691406 C 79.210938 72.867188 79.539062 73.175781 79.675781 73.25 C 79.789062 73.3125 79.882812 73.292969 79.910156 73.28125 L 80.011719 73.226562 L 80.105469 73.238281 L 85.808594 73.238281 C 90.273438 63.734375 90.242188 43.359375 90.222656 33.519531 C 90.222656 32.964844 90.222656 32.445312 90.222656 31.949219 C 90.222656 27.574219 89.632812 23.820312 88.460938 20.785156 C 87.390625 18.003906 85.796875 15.730469 83.71875 14.03125 C 80.152344 11.109375 74.988281 9.691406 67.921875 9.691406 C 60.851562 9.691406 55.683594 11.117188 52.117188 14.03125 C 50.039062 15.730469 48.445312 18.003906 47.375 20.785156 C 46.207031 23.820312 45.613281 27.574219 45.613281 31.949219 C 45.613281 32.445312 45.613281 32.964844 45.613281 33.519531 C 45.601562 43.359375 45.570312 63.734375 50.027344 73.238281 L 55.851562 73.238281 L 55.917969 73.28125 C 55.949219 73.292969 56.042969 73.3125 56.152344 73.25 C 56.289062 73.167969 56.613281 72.867188 56.78125 71.691406 C 57.171875 68.9375 58.460938 68.386719 60.414062 68.386719 Z M 79.90625 73.289062 Z M 79.90625 73.289062 " fill-opacity="1" fill-rule="nonzero"/><path fill="#313232" d="M 79.0625 11.207031 C 79.0625 11.207031 81.765625 9.050781 83.414062 7.902344 C 85.0625 6.757812 87.046875 6.628906 88.472656 7.949219 C 90.011719 9.371094 93.570312 12.679688 94.488281 13.640625 C 95.628906 14.839844 93 17.042969 88.058594 16.417969 C 83.117188 15.800781 79.0625 11.207031 79.0625 11.207031 Z M 79.0625 11.207031 " fill-opacity="1" fill-rule="nonzero"/><path fill="#313232" d="M 66.042969 24.027344 L 65.148438 24.027344 L 65.148438 19.140625 C 65.148438 18.253906 64.425781 17.53125 63.539062 17.53125 L 60.691406 17.53125 C 59.804688 17.53125 59.078125 18.253906 59.078125 19.140625 L 59.078125 24.027344 L 58.1875 24.027344 L 58.1875 19.140625 C 58.1875 17.761719 59.308594 16.640625 60.691406 16.640625 L 63.539062 16.640625 C 64.921875 16.640625 66.042969 17.761719 66.042969 19.140625 Z M 66.042969 24.027344 " fill-opacity="1" fill-rule="nonzero"/><path fill="#313232" d="M 60.605469 23.558594 L 60.605469 21.035156 C 60.605469 20.476562 61.058594 20.027344 61.617188 20.027344 L 62.539062 20.027344 C 63.097656 20.027344 63.550781 20.476562 63.550781 21.035156 L 63.550781 23.558594 " fill-opacity="1" fill-rule="nonzero"/><path fill="#313232" d="M 77.644531 24.027344 L 76.75 24.027344 L 76.75 19.140625 C 76.75 18.253906 76.023438 17.53125 75.136719 17.53125 L 72.292969 17.53125 C 71.40625 17.53125 70.679688 18.253906 70.679688 19.140625 L 70.679688 24.027344 L 69.789062 24.027344 L 69.789062 19.140625 C 69.789062 17.761719 70.910156 16.640625 72.292969 16.640625 L 75.136719 16.640625 C 76.519531 16.640625 77.644531 17.761719 77.644531 19.140625 Z M 77.644531 24.027344 " fill-opacity="1" fill-rule="nonzero"/><path fill="#313232" d="M 72.199219 23.558594 L 72.199219 21.035156 C 72.199219 20.476562 72.652344 20.027344 73.210938 20.027344 L 74.132812 20.027344 C 74.691406 20.027344 75.144531 20.476562 75.144531 21.035156 L 75.144531 23.558594 " fill-opacity="1" fill-rule="nonzero"/><path fill="#313232" d="M 62.210938 59 C 61.546875 59 61.175781 58.222656 61.050781 57.960938 C 60.046875 55.871094 59.859375 54.148438 59.847656 54.074219 C 59.824219 53.828125 60.003906 53.609375 60.246094 53.585938 C 60.488281 53.5625 60.710938 53.734375 60.734375 53.984375 C 60.734375 54 60.921875 55.632812 61.851562 57.578125 C 62.03125 57.949219 62.15625 58.066406 62.203125 58.101562 C 62.277344 58.046875 62.398438 57.863281 62.460938 57.699219 C 62.503906 57.589844 62.589844 57.496094 62.699219 57.449219 C 62.8125 57.398438 62.9375 57.398438 63.046875 57.449219 L 64.121094 57.894531 C 64.351562 57.984375 64.457031 58.246094 64.363281 58.472656 C 64.269531 58.703125 64.007812 58.808594 63.78125 58.714844 L 63.089844 58.429688 C 62.917969 58.699219 62.644531 58.988281 62.25 59.007812 C 62.242188 59 62.222656 59 62.210938 59 Z M 62.210938 59 " fill-opacity="1" fill-rule="nonzero"/><path fill="#fef9fa" d="M 85.363281 35.363281 L 90.476562 36.601562 C 90.476562 36.601562 93.398438 40.148438 92.195312 45.625 C 91.152344 50.367188 87.152344 52.640625 87.152344 52.640625 Z M 85.363281 35.363281 " fill-opacity="1" fill-rule="nonzero"/><path strokelinecap="round" transform="matrix(0.62, 0, 0, 0.61875, -10.099554, -34.115167)" fill="none" strokeLinejoin="round" d="M 162.206953 114.460116 C 166.37782 120.097742 168.456953 131.398246 156.85791 140.211378 " stroke="#323232" strokeWidth="1.5" stroke-opacity="1" stroke-miterlimit="10"/><path fill="#fef9fa" d="M 50.460938 35.363281 L 45.347656 36.601562 C 45.347656 36.601562 42.425781 40.148438 43.628906 45.625 C 44.671875 50.367188 48.671875 52.640625 48.671875 52.640625 Z M 50.460938 35.363281 " fill-opacity="1" fill-rule="nonzero"/><path strokelinecap="round" transform="matrix(0.62, 0, 0, 0.61875, -10.099554, -34.115167)" fill="none" strokeLinejoin="round" d="M 89.437291 114.460116 C 85.272724 120.097742 83.187291 131.398246 94.792634 140.211378 " stroke="#323232" strokeWidth="1.5" stroke-opacity="1" stroke-miterlimit="10"/><path fill="#313232" d="M 46.742188 46.15625 C 47.492188 47.671875 46.910156 48.4375 46.152344 48.808594 C 45.398438 49.179688 44.523438 48.570312 43.773438 47.046875 C 43.023438 45.53125 43.25 44.453125 44.015625 44.082031 C 44.765625 43.710938 45.992188 44.640625 46.742188 46.15625 Z M 46.742188 46.15625 " fill-opacity="1" fill-rule="nonzero"/><path fill="#9d9aa5" d="M 49.710938 32.375 L 50.457031 31.070312 L 85.269531 31.070312 L 86.011719 32.375 L 85.3125 50.9375 C 85.3125 50.9375 85.890625 50.734375 85.890625 51.792969 C 85.890625 52.851562 84.625 52.644531 84.625 52.644531 L 50.691406 52.644531 C 50.691406 52.644531 49.835938 52.613281 49.835938 51.792969 C 49.835938 50.96875 50.414062 50.9375 50.414062 50.9375 Z M 49.710938 32.375 " fill-opacity="1" fill-rule="nonzero"/><path strokelinecap="round" transform="matrix(0.62, 0, 0, 0.61875, -10.099554, -34.115167)" fill="none" strokeLinejoin="round" d="M 153.449392 140.211378 L 98.049943 140.211378 C 97.287594 140.211378 96.670154 139.592691 96.670154 138.828802 C 96.670154 138.071226 97.287594 137.452539 98.049943 137.452539 L 153.449392 137.452539 C 154.211741 137.452539 154.82918 138.071226 154.82918 138.828802 C 154.82918 139.592691 154.211741 140.211378 153.449392 140.211378 Z M 153.449392 140.211378 " stroke="#323232" strokeWidth="1.5" stroke-opacity="1" stroke-miterlimit="10"/><path strokelinecap="round" transform="matrix(0.62, 0, 0, 0.61875, -10.099554, -34.115167)" fill="none" strokeLinejoin="round" d="M 153.827416 105.350267 L 97.678219 105.350267 L 96.468541 107.458853 L 97.602614 137.458852 L 153.909321 137.458852 L 155.030793 107.458853 Z M 153.827416 105.350267 " stroke="#323232" strokeWidth="1.5" stroke-opacity="1" stroke-miterlimit="10"/><path strokelinecap="round" transform="matrix(0.62, 0, 0, 0.61875, -10.099554, -34.115167)" fill="none" strokeLinejoin="round" d="M 98.490971 107.629308 L 153.008364 107.629308 " stroke="#323232" strokeWidth="1.5" stroke-opacity="1" stroke-miterlimit="10"/><path strokelinecap="round" transform="matrix(0.62, 0, 0, 0.61875, -10.099554, -34.115167)" fill="none" strokeLinejoin="round" d="M 149.240722 137.93865 L 149.240722 140.211378 " stroke="#323232" strokeWidth="1.5" stroke-opacity="1" stroke-miterlimit="10"/><path strokelinecap="round" transform="matrix(0.62, 0, 0, 0.61875, -10.099554, -34.115167)" fill="none" strokeLinejoin="round" d="M 144.849341 137.93865 L 144.849341 140.211378 " stroke="#323232" strokeWidth="1.5" stroke-opacity="1" stroke-miterlimit="10"/><path strokelinecap="round" transform="matrix(0.62, 0, 0, 0.61875, -10.099554, -34.115167)" fill="none" strokeLinejoin="round" d="M 107.267433 137.93865 L 107.267433 140.211378 " stroke="#323232" strokeWidth="1.5" stroke-opacity="1" stroke-miterlimit="10"/><path strokelinecap="round" transform="matrix(0.62, 0, 0, 0.61875, -10.099554, -34.115167)" fill="none" strokeLinejoin="round" d="M 102.882352 137.93865 L 102.882352 140.211378 " stroke="#323232" strokeWidth="1.5" stroke-opacity="1" stroke-miterlimit="10"/><path fill="#313232" d="M 56.65625 11.207031 C 56.65625 11.207031 53.953125 9.050781 52.304688 7.902344 C 50.652344 6.753906 48.671875 6.628906 47.246094 7.949219 C 45.707031 9.371094 42.148438 12.679688 41.230469 13.640625 C 40.089844 14.839844 42.71875 17.042969 47.660156 16.417969 C 52.601562 15.800781 56.65625 11.207031 56.65625 11.207031 Z M 56.65625 11.207031 " fill-opacity="1" fill-rule="nonzero"/><g clip-path="url(#c368d685d6)"><path fill="#202121" d="M 62.453125 89.058594 L 60.222656 89.058594 C 59.167969 89.058594 58.03125 88.335938 58.03125 86.746094 C 58.03125 84.796875 59.382812 83.625 61.648438 83.625 L 62.382812 83.625 C 62.5625 81.839844 63.816406 80.664062 65.613281 80.664062 L 71.027344 80.664062 C 72.101562 80.664062 72.972656 81.628906 72.972656 82.816406 L 72.972656 87.585938 C 72.972656 88.390625 72.378906 89.039062 71.640625 89.039062 L 63.699219 89.039062 C 63.457031 89.039062 63.257812 88.972656 63.105469 88.878906 C 62.949219 88.984375 62.730469 89.058594 62.453125 89.058594 Z M 61.652344 84.519531 C 60.636719 84.519531 58.929688 84.808594 58.929688 86.746094 C 58.929688 87.796875 59.625 88.167969 60.226562 88.167969 L 62.460938 88.167969 C 62.589844 88.167969 62.644531 88.136719 62.65625 88.117188 C 62.714844 87.953125 62.855469 87.816406 63.035156 87.804688 C 63.222656 87.789062 63.394531 87.878906 63.46875 88.050781 C 63.496094 88.082031 63.554688 88.164062 63.699219 88.164062 L 71.640625 88.164062 C 71.882812 88.164062 72.082031 87.902344 72.082031 87.597656 L 72.082031 82.828125 C 72.082031 82.128906 71.609375 81.566406 71.027344 81.566406 L 65.613281 81.566406 C 64.15625 81.566406 63.253906 82.53125 63.253906 84.085938 C 63.253906 84.332031 63.054688 84.53125 62.804688 84.53125 L 61.652344 84.53125 Z M 62.644531 88.144531 C 62.644531 88.148438 62.644531 88.148438 62.644531 88.144531 C 62.644531 88.148438 62.644531 88.148438 62.644531 88.144531 Z M 62.644531 88.144531 Z M 63.476562 88.050781 Z M 63.476562 88.050781 " fill-opacity="1" fill-rule="nonzero"/></g><g clip-path="url(#2298d82d8a)"><path fill="#202121" d="M 93.054688 89.058594 L 90.824219 89.058594 C 89.769531 89.058594 88.636719 88.335938 88.636719 86.746094 C 88.636719 84.796875 89.988281 83.625 92.25 83.625 L 92.988281 83.625 C 93.167969 81.839844 94.421875 80.664062 96.21875 80.664062 L 101.628906 80.664062 C 102.703125 80.664062 103.578125 81.628906 103.578125 82.816406 L 103.578125 87.585938 C 103.578125 88.390625 102.980469 89.039062 102.246094 89.039062 L 94.300781 89.039062 C 94.058594 89.039062 93.863281 88.972656 93.707031 88.878906 C 93.546875 88.984375 93.328125 89.058594 93.054688 89.058594 Z M 92.25 84.519531 C 91.234375 84.519531 89.527344 84.808594 89.527344 86.746094 C 89.527344 87.796875 90.222656 88.167969 90.824219 88.167969 L 93.054688 88.167969 C 93.1875 88.167969 93.242188 88.136719 93.253906 88.117188 C 93.308594 87.953125 93.453125 87.816406 93.632812 87.804688 C 93.820312 87.789062 93.992188 87.878906 94.066406 88.050781 C 94.089844 88.082031 94.152344 88.164062 94.296875 88.164062 L 102.238281 88.164062 C 102.480469 88.164062 102.679688 87.902344 102.679688 87.597656 L 102.679688 82.828125 C 102.679688 82.128906 102.207031 81.566406 101.625 81.566406 L 96.210938 81.566406 C 94.753906 81.566406 93.851562 82.53125 93.851562 84.085938 C 93.851562 84.332031 93.652344 84.53125 93.402344 84.53125 L 92.25 84.53125 Z M 93.242188 88.144531 C 93.242188 88.148438 93.242188 88.148438 93.242188 88.144531 C 93.242188 88.148438 93.242188 88.148438 93.242188 88.144531 Z M 93.242188 88.144531 Z M 94.074219 88.050781 Z M 94.074219 88.050781 " fill-opacity="1" fill-rule="nonzero"/></g><path fill="#313232" d="M 93.5625 78.332031 C 93.625 79.132812 93.496094 79.351562 95.019531 79.226562 C 96.546875 79.109375 97.445312 78.832031 97.382812 78.035156 C 97.320312 77.230469 96.03125 76.671875 94.511719 76.796875 C 92.980469 76.90625 93.503906 77.527344 93.5625 78.332031 Z M 93.5625 78.332031 " fill-opacity="1" fill-rule="nonzero"/><path fill="#313232" d="M 110.445312 78.8125 C 110.328125 78.8125 110.210938 78.761719 110.128906 78.675781 C 108.257812 76.769531 107.398438 75.042969 107.5625 73.554688 C 107.710938 72.199219 108.675781 71.5625 108.71875 71.535156 C 108.804688 71.480469 108.910156 71.457031 109.007812 71.46875 C 109.863281 71.566406 110.507812 71.949219 110.929688 72.621094 C 111.464844 73.460938 111.613281 74.714844 111.371094 76.355469 C 111.195312 77.53125 110.882812 78.472656 110.867188 78.507812 C 110.820312 78.660156 110.695312 78.769531 110.546875 78.800781 C 110.515625 78.8125 110.484375 78.8125 110.445312 78.8125 Z M 109.082031 72.382812 C 108.890625 72.558594 108.519531 72.976562 108.449219 73.675781 C 108.339844 74.734375 108.960938 76.046875 110.242188 77.496094 C 110.558594 76.234375 110.867188 74.179688 110.179688 73.101562 C 109.933594 72.710938 109.574219 72.476562 109.082031 72.382812 Z M 109.082031 72.382812 " fill-opacity="1" fill-rule="nonzero"/><path fill="#d8d4d1" d="M 7.683594 52.195312 L 158.777344 52.195312 L 158.777344 58.734375 L 7.683594 58.734375 Z M 7.683594 52.195312 " fill-opacity="1" fill-rule="nonzero"/><g clip-path="url(#47e76e1521)"><path fill="#d8d4d1" d="M 11.023438 58.011719 L 155.433594 58.011719 L 155.433594 89.636719 L 11.023438 89.636719 Z M 11.023438 58.011719 " fill-opacity="1" fill-rule="nonzero"/></g><path fill="#323232" d="M 157.847656 53.121094 L 157.847656 57.804688 L 8.613281 57.804688 L 8.613281 53.121094 L 157.847656 53.121094 M 158.777344 52.195312 L 7.683594 52.195312 L 7.683594 58.734375 L 158.777344 58.734375 Z M 158.777344 52.195312 " fill-opacity="1" fill-rule="nonzero"/><g clip-path="url(#aadda50b62)"><path strokelinecap="butt" transform="matrix(0.62, 0, 0, 0.61875, -10.099554, -34.115167)" fill="none" strokeLinejoin="round" d="M 266.988966 149.687387 L 266.988966 200.009356 " stroke="#323232" strokeWidth="1.5" stroke-opacity="1" stroke-miterlimit="10"/></g><g clip-path="url(#32f2acde42)"><path strokelinecap="butt" transform="matrix(0.62, 0, 0, 0.61875, -10.099554, -34.115167)" fill="none" strokeLinejoin="round" d="M 34.069344 200.009356 L 34.069344 149.687387 " stroke="#323232" strokeWidth="1.5" stroke-opacity="1" stroke-miterlimit="10"/></g><path strokelinecap="round" transform="matrix(0.62, 0, 0, 0.61875, -10.099554, -34.115167)" fill="none" strokeLinejoin="round" d="M 182.387146 129.801024 L 260.197131 129.801024 L 260.197131 140.110367 L 182.387146 140.110367 Z M 182.387146 129.801024 " stroke="#323232" strokeWidth="1.5" stroke-opacity="1" stroke-miterlimit="10"/><path strokelinecap="round" transform="matrix(0.62, 0, 0, 0.61875, -10.099554, -34.115167)" fill="none" strokeLinejoin="round" d="M 234.838006 116.00052 L 257.298945 116.00052 L 257.298945 129.801024 L 181.328678 129.801024 L 181.328678 116.00052 L 202.951663 116.00052 " stroke="#323232" strokeWidth="1.5" stroke-opacity="1" stroke-miterlimit="10"/><path strokelinecap="round" transform="matrix(0.62, 0, 0, 0.61875, -10.099554, -34.115167)" fill="none" strokeLinejoin="round" d="M 182.387146 134.958852 L 216.837753 134.958852 " stroke="#323232" strokeWidth="1.5" stroke-opacity="1" stroke-miterlimit="10"/><path strokelinecap="round" transform="matrix(0.62, 0, 0, 0.61875, -10.099554, -34.115167)" fill="none" strokeLinejoin="round" d="M 182.387146 125.539661 L 222.671927 125.539661 " stroke="#323232" strokeWidth="1.5" stroke-opacity="1" stroke-miterlimit="10"/><path strokelinecap="round" transform="matrix(0.62, 0, 0, 0.61875, -10.099554, -34.115167)" fill="none" strokeLinejoin="round" d="M 229.967794 120.369206 L 257.122534 120.369206 " stroke="#323232" strokeWidth="1.5" stroke-opacity="1" stroke-miterlimit="10"/><path strokelinecap="round" transform="matrix(0.62, 0, 0, 0.61875, -10.099554, -34.115167)" fill="none" strokeLinejoin="round" d="M 182.387146 121.278297 L 193.910584 121.278297 " stroke="#323232" strokeWidth="1.5" stroke-opacity="1" stroke-miterlimit="10"/><path strokelinecap="round" transform="matrix(0.62, 0, 0, 0.61875, -10.099554, -34.115167)" fill="none" strokeLinejoin="round" d="M 237.988208 137.149509 L 260.197131 137.149509 " stroke="#323232" strokeWidth="1.5" stroke-opacity="1" stroke-miterlimit="10"/><path strokelinecap="round" transform="matrix(0.62, 0, 0, 0.61875, -10.099554, -34.115167)" fill="none" strokeLinejoin="round" d="M 250.418904 133.601529 L 260.197131 133.601529 " stroke="#323232" strokeWidth="1.5" stroke-opacity="1" stroke-miterlimit="10"/><path strokelinecap="round" transform="matrix(0.62, 0, 0, 0.61875, -10.099554, -34.115167)" fill="none" strokeLinejoin="round" d="M 249.089519 110.849005 C 249.089519 110.849005 238.857664 110.646984 228.770717 121.278297 C 228.770717 121.278297 214.582208 116.139408 202.939062 116.069964 C 193.960987 116.013146 175.450401 116.069964 175.450401 116.069964 C 175.450401 116.069964 177.781551 112.742944 183.212499 110.861631 Z M 249.089519 110.849005 " stroke="#323232" strokeWidth="1.5" stroke-opacity="1" stroke-miterlimit="10"/><path strokelinecap="round" transform="matrix(0.62, 0, 0, 0.61875, -10.099554, -34.115167)" fill="none" strokeLinejoin="round" d="M 183.218799 110.849005 L 183.218799 105.968954 L 257.122534 105.968954 L 257.122534 116.00052 " stroke="#323232" strokeWidth="1.5" stroke-opacity="1" stroke-miterlimit="10"/><path strokelinecap="round" transform="matrix(0.62, 0, 0, 0.61875, -10.099554, -34.115167)" fill="none" strokeLinejoin="round" d="M 183.218799 97.679813 L 183.218799 92.812389 L 257.298945 92.812389 L 257.298945 102.837641 " stroke="#323232" strokeWidth="1.5" stroke-opacity="1" stroke-miterlimit="10"/><path strokelinecap="round" transform="matrix(0.62, 0, 0, 0.61875, -10.099554, -34.115167)" fill="none" strokeLinejoin="round" d="M 257.122534 110.849005 L 249.089519 110.849005 " stroke="#323232" strokeWidth="1.5" stroke-opacity="1" stroke-miterlimit="10"/><path strokelinecap="round" transform="matrix(0.62, 0, 0, 0.61875, -10.099554, -34.115167)" fill="none" strokeLinejoin="round" d="M 183.218799 95.552288 L 257.298945 95.552288 L 257.298945 105.968954 L 183.218799 105.968954 Z M 183.218799 95.552288 " stroke="#323232" strokeWidth="1.5" stroke-opacity="1" stroke-miterlimit="10"/><path strokelinecap="round" transform="matrix(0.62, 0, 0, 0.61875, -10.099554, -34.115167)" fill="none" strokeLinejoin="round" d="M 251.723088 95.552288 C 251.723088 95.552288 245.851112 95.331328 241.081706 100.091429 C 241.081706 100.091429 235.20973 95.539661 223.232663 95.539661 " stroke="#323232" strokeWidth="1.5" stroke-opacity="1" stroke-miterlimit="10"/><path strokelinecap="round" transform="matrix(0.62, 0, 0, 0.61875, -10.099554, -34.115167)" fill="none" strokeLinejoin="round" d="M 257.298945 102.869207 L 204.167641 102.869207 " stroke="#323232" strokeWidth="1.5" stroke-opacity="1" stroke-miterlimit="10"/><path strokelinecap="round" transform="matrix(0.62, 0, 0, 0.61875, -10.099554, -34.115167)" fill="none" strokeLinejoin="round" d="M 212.282561 99.763146 L 183.218799 99.763146 " stroke="#323232" strokeWidth="1.5" stroke-opacity="1" stroke-miterlimit="10"/><path strokelinecap="round" transform="matrix(0.62, 0, 0, 0.61875, -10.099554, -34.115167)" fill-opacity="1" fill="#323232" fill-rule="nonzero" strokeLinejoin="round" d="M 72.199387 121.221479 C 72.048177 120.937388 71.808762 120.539661 71.808762 120.539661 L 71.808762 119.390671 L 61.431997 119.390671 L 61.431997 120.539661 C 61.431997 120.539661 61.192581 120.937388 61.041372 121.221479 C 60.871261 121.530822 60.808257 121.631833 60.808257 122.080065 C 60.808257 122.528297 60.808257 138.109105 60.808257 138.380569 C 60.808257 138.652034 61.098075 138.929812 61.268186 139.131832 C 61.501301 139.39067 61.608408 140.072489 61.967531 140.072489 C 62.26995 140.072489 65.439053 140.072489 66.47232 140.072489 C 66.667632 140.072489 66.78734 140.072489 66.78734 140.072489 C 67.808005 140.072489 70.989709 140.072489 71.292128 140.072489 C 71.651251 140.072489 71.758358 139.39067 71.991473 139.131832 C 72.161584 138.942438 72.451403 138.652034 72.451403 138.380569 C 72.451403 138.109105 72.451403 122.521984 72.451403 122.080065 C 72.432501 121.638146 72.356897 121.537136 72.199387 121.221479 Z M 72.199387 121.221479 " stroke="#323232" strokeWidth="1.5" stroke-opacity="1" stroke-miterlimit="10"/><path strokelinecap="butt" transform="matrix(0.62, 0, 0, 0.61875, -10.099554, -34.115167)" fill="none" strokeLinejoin="miter" d="M 68.790868 129.51062 L 64.430989 129.51062 C 63.649739 129.51062 63.007098 128.872994 63.007098 128.090166 L 63.007098 126.638146 C 63.007098 125.86163 63.649739 125.217691 64.430989 125.217691 L 68.790868 125.217691 C 69.572118 125.217691 70.208459 125.86163 70.208459 126.638146 L 70.208459 128.090166 C 70.208459 128.872994 69.572118 129.51062 68.790868 129.51062 Z M 68.790868 129.51062 " stroke="#6cb52f" strokeWidth="1" stroke-opacity="1" stroke-miterlimit="10"/><path strokelinecap="round" transform="matrix(0.62, 0, 0, 0.61875, -10.099554, -34.115167)" fill="none" strokeLinejoin="miter" d="M 65.313045 126.947489 L 65.313045 127.919711 " stroke="#6cb52f" strokeWidth="1" stroke-opacity="1" stroke-miterlimit="10"/><path strokelinecap="round" transform="matrix(0.62, 0, 0, 0.61875, -10.099554, -34.115167)" fill="none" strokeLinejoin="miter" d="M 63.448126 131.152034 L 64.752309 131.152034 " stroke="#6cb52f" strokeWidth="1" stroke-opacity="1" stroke-miterlimit="10"/><path strokelinecap="round" transform="matrix(0.62, 0, 0, 0.61875, -10.099554, -34.115167)" fill="none" strokeLinejoin="miter" d="M 63.448126 132.540923 L 64.752309 132.540923 " stroke="#6cb52f" strokeWidth="1" stroke-opacity="1" stroke-miterlimit="10"/><path strokelinecap="round" transform="matrix(0.62, 0, 0, 0.61875, -10.099554, -34.115167)" fill="none" strokeLinejoin="miter" d="M 66.610929 131.152034 L 67.738701 131.152034 " stroke="#6cb52f" strokeWidth="1" stroke-opacity="1" stroke-miterlimit="10"/><path strokelinecap="round" transform="matrix(0.62, 0, 0, 0.61875, -10.099554, -34.115167)" fill="none" strokeLinejoin="miter" d="M 65.476856 134.807337 L 66.610929 134.807337 " stroke="#6cb52f" strokeWidth="1" stroke-opacity="1" stroke-miterlimit="10"/><path strokelinecap="round" transform="matrix(0.62, 0, 0, 0.61875, -10.099554, -34.115167)" fill="none" strokeLinejoin="miter" d="M 66.610929 132.540923 L 67.738701 132.540923 " stroke="#6cb52f" strokeWidth="1" stroke-opacity="1" stroke-miterlimit="10"/><path strokelinecap="round" transform="matrix(0.62, 0, 0, 0.61875, -10.099554, -34.115167)" fill="none" strokeLinejoin="miter" d="M 68.97988 133.008095 L 70.107653 133.008095 " stroke="#6cb52f" strokeWidth="1" stroke-opacity="1" stroke-miterlimit="10"/><path strokelinecap="round" transform="matrix(0.62, 0, 0, 0.61875, -10.099554, -34.115167)" fill="none" strokeLinejoin="miter" d="M 68.97988 134.396984 L 70.107653 134.396984 " stroke="#6cb52f" strokeWidth="1" stroke-opacity="1" stroke-miterlimit="10"/><path strokelinecap="round" transform="matrix(0.62, 0, 0, 0.61875, -10.099554, -34.115167)" fill="none" strokeLinejoin="miter" d="M 64.752309 129.51062 L 64.752309 133.191176 " stroke="#6cb52f" strokeWidth="1" stroke-opacity="1" stroke-miterlimit="10"/><path strokelinecap="round" transform="matrix(0.62, 0, 0, 0.61875, -10.099554, -34.115167)" fill="none" strokeLinejoin="miter" d="M 68.841271 129.51062 L 68.841271 135.217691 " stroke="#6cb52f" strokeWidth="1" stroke-opacity="1" stroke-miterlimit="10"/><path strokelinecap="round" transform="matrix(0.62, 0, 0, 0.61875, -10.099554, -34.115167)" fill="none" strokeLinejoin="miter" d="M 66.610929 129.51062 L 66.610929 135.937388 " stroke="#6cb52f" strokeWidth="1" stroke-opacity="1" stroke-miterlimit="10"/><path strokelinecap="round" transform="matrix(0.62, 0, 0, 0.61875, -10.099554, -34.115167)" fill="none" strokeLinejoin="miter" d="M 67.738701 126.947489 L 67.738701 127.919711 " stroke="#6cb52f" strokeWidth="1" stroke-opacity="1" stroke-miterlimit="10"/><path strokelinecap="round" transform="matrix(0.62, 0, 0, 0.61875, -10.099554, -34.115167)" fill="none" strokeLinejoin="round" d="M 52.920151 140.072489 L 40.231138 140.072489 C 39.449888 140.072489 38.807247 139.428549 38.807247 138.652034 L 38.807247 121.751782 C 38.807247 120.968954 39.449888 120.331328 40.231138 120.331328 L 52.907551 120.331328 C 53.688801 120.331328 54.331442 120.968954 54.331442 121.751782 L 54.331442 138.652034 C 54.331442 139.441176 53.701401 140.072489 52.920151 140.072489 Z M 52.920151 140.072489 " stroke="#323232" strokeWidth="1.5" stroke-opacity="1" stroke-miterlimit="10"/><path strokelinecap="round" transform="matrix(0.62, 0, 0, 0.61875, -10.099554, -34.115167)" fill="none" strokeLinejoin="round" d="M 52.498024 120.337641 L 50.727611 120.337641 C 50.721311 120.337641 50.70871 120.331328 50.70871 120.318701 L 50.70871 115.45759 C 50.70871 115.451277 50.721311 115.438651 50.727611 115.438651 L 52.498024 115.438651 C 52.510625 115.438651 52.516926 115.451277 52.516926 115.45759 L 52.516926 120.318701 C 52.516926 120.331328 52.510625 120.337641 52.498024 120.337641 Z M 52.498024 120.337641 " stroke="#323232" strokeWidth="1.5" stroke-opacity="1" stroke-miterlimit="10"/><path fill="#323232" d="M 17.671875 40.34375 C 17.671875 40.34375 18.222656 41.285156 18.054688 42.058594 C 17.894531 42.832031 17.28125 43.035156 16.832031 43.085938 C 16.269531 43.148438 15.605469 42.660156 15.132812 42.769531 C 14.644531 42.886719 13.96875 43.539062 13.96875 43.539062 C 13.96875 43.539062 13.96875 41.859375 13.96875 41.488281 C 13.96875 41.117188 13.789062 40.339844 15.214844 40.339844 C 16.640625 40.339844 17.671875 40.34375 17.671875 40.34375 Z M 17.671875 40.34375 " fill-opacity="1" fill-rule="nonzero"/><path fill="#323232" d="M 13.957031 47.949219 C 13.957031 47.949219 14.410156 47.484375 15.386719 47.484375 C 16.546875 47.484375 16.921875 48.570312 16.882812 49.167969 C 16.84375 49.769531 16.726562 50.207031 17.144531 50.53125 C 17.558594 50.851562 18.445312 51.445312 18.214844 52.484375 C 18.214844 52.484375 15.582031 52.484375 15.097656 52.484375 C 14.613281 52.484375 13.960938 52.460938 13.960938 51.265625 C 13.957031 50.070312 13.957031 47.949219 13.957031 47.949219 Z M 13.957031 47.949219 " fill-opacity="1" fill-rule="nonzero"/><path fill="#323232" d="M 19.652344 52.285156 C 19.652344 52.285156 20.15625 52.003906 19.964844 51.476562 C 19.773438 50.949219 19.363281 50.214844 19.835938 49.878906 C 20.304688 49.546875 20.796875 49.867188 21 50.277344 C 21.179688 50.648438 21.550781 50.589844 21.773438 50.441406 C 21.953125 50.320312 22.121094 49.789062 22.660156 49.75 C 23.199219 49.714844 23.472656 50.011719 23.589844 50.132812 C 23.710938 50.265625 23.589844 51.054688 23.589844 51.46875 C 23.589844 51.886719 23.304688 52.628906 22.433594 52.628906 C 21.558594 52.628906 19.46875 52.554688 19.46875 52.554688 Z M 19.652344 52.285156 " fill-opacity="1" fill-rule="nonzero"/><path fill="#323232" d="M 20.089844 43.902344 C 19.976562 43.371094 20.621094 42.960938 21.441406 43.011719 C 22.257812 43.0625 22.730469 43.570312 22.847656 44.589844 C 22.964844 45.609375 23.398438 45.550781 23.398438 45.550781 L 23.4375 46.445312 C 23.4375 46.445312 23.078125 46.199219 22.828125 46.574219 C 22.582031 46.953125 22.046875 47.8125 20.960938 47.8125 C 19.878906 47.8125 19.152344 46.984375 19.351562 46.203125 C 19.597656 45.222656 20.894531 45.652344 20.976562 44.980469 C 21.054688 44.304688 20.242188 44.644531 20.089844 43.902344 Z M 20.089844 43.902344 " fill-opacity="1" fill-rule="nonzero"/><path fill="#323232" d="M 17.460938 44.980469 C 17.910156 44.972656 18.214844 45.523438 18.222656 45.949219 C 18.226562 46.378906 18.382812 46.605469 18.476562 46.742188 C 18.625 46.964844 18.421875 47.484375 17.707031 47.28125 C 17 47.082031 16.710938 46.589844 16.710938 45.921875 C 16.710938 45.25 17.113281 44.984375 17.460938 44.980469 Z M 17.460938 44.980469 " fill-opacity="1" fill-rule="nonzero"/></svg>