<?xml version="1.0" encoding="utf-8"?>
<!-- Generator: Adobe Illustrator 26.3.1, SVG Export Plug-In . SVG Version: 6.00 Build 0)  -->
<svg version="1.1" id="レイヤー_1" xmlns="http://www.w3.org/2000/svg" xmlns:xlink="http://www.w3.org/1999/xlink" x="0px"
	 y="0px" viewBox="0 0 480 360" style="enable-background:new 0 0 480 360;" xml:space="preserve">
<style type="text/css">
	.st0{fill:#CBC164;}
	.st1{fill:#FFF9F9;}
	.st2{fill:#FFFFFF;}
	.st3{fill:#D6D3D0;}
	.st4{fill:#222222;}
	.st5{fill:#313232;}
	.st6{fill:#252525;}
	.st7{fill:#323232;}
	.st8{fill:none;stroke:#000000;stroke-width:5;stroke-linecap:round;stroke-linejoin:round;stroke-miterlimit:10;}
	.st9{fill:#FFFFFF;stroke:#000000;stroke-width:5;stroke-linecap:round;stroke-linejoin:round;stroke-miterlimit:10;}
	.st10{fill:#F8EDD8;}
	.st11{fill:#F9EFDB;}
	.st12{fill:#202020;}
	.st13{fill:#D8D4D1;}
	.st14{fill:#D57869;}
	.st15{fill:#9C99A4;}
	.st16{fill:#FDF8F9;}
</style>
<path class="st0" d="M160.07,61.77c2.72-1.35,3.92-5.39,2.31-16.61C159.06,22.13,149,4.52,139.9,5.83s-13.79,21.04-10.47,44.06
	c1.65,11.43,7.33,21.04,10.39,21.47"/>
<path class="st0" d="M318.93,61.77c-2.72-1.35-3.92-5.39-2.31-16.61C319.94,22.13,330,4.52,339.1,5.83
	c9.1,1.31,13.79,21.04,10.47,44.06c-1.65,11.43-7.33,21.04-10.39,21.47"/>
<path class="st1" d="M399.24,367.63c4.3-59.24,3.73-118.97,3.73-154.65c0-132.03-72.81-162.65-162.63-162.66v0c0,0-0.01,0-0.01,0
	s-0.01,0-0.01,0v0C150.49,50.33,77.68,80.95,77.68,212.98c0,35.7-0.57,95.46,3.73,154.73"/>
<path class="st2" d="M306.65,156.17v-35.02c0-8.12-6.58-14.7-14.7-14.7H271.6c-8.12,0-14.7,6.58-14.7,14.7v35.02"/>
<path class="st3" d="M312.94,227.33H167.69c-9.14,0-16.62-7.48-16.62-16.62v-19.82c0-19.43,15.89-35.32,35.32-35.32h107.86
	c19.43,0,35.32,15.89,35.32,35.32v19.82C329.57,219.85,322.09,227.33,312.94,227.33z"/>
<path class="st2" d="M223.73,156.17v-35.02c0-8.12-6.58-14.7-14.7-14.7h-20.35c-8.12,0-14.7,6.58-14.7,14.7v35.02"/>
<path class="st4" d="M312.94,229.83H167.69c-10.54,0-19.12-8.58-19.12-19.12v-19.82c0-20.85,16.97-37.82,37.82-37.82h107.86
	c20.85,0,37.82,16.97,37.82,37.82v19.82C332.07,221.25,323.49,229.83,312.94,229.83z M186.38,158.07
	c-18.1,0-32.82,14.72-32.82,32.82v19.82c0,7.79,6.34,14.12,14.12,14.12h145.26c7.79,0,14.12-6.34,14.12-14.12v-19.82
	c0-18.1-14.72-32.82-32.82-32.82H186.38z"/>
<path class="st5" d="M267.48,208.03h-3.66c-2.64,0-4.8-2.16-4.8-4.8v-25.37c0-2.64,2.16-4.8,4.8-4.8h3.66c2.64,0,4.8,2.16,4.8,4.8
	v25.37C272.28,205.87,270.12,208.03,267.48,208.03z"/>
<path class="st5" d="M219.83,208.03h-3.66c-2.64,0-4.8-2.16-4.8-4.8v-25.37c0-2.64,2.16-4.8,4.8-4.8h3.66c2.64,0,4.8,2.16,4.8,4.8
	v25.37C224.64,205.87,222.47,208.03,219.83,208.03z"/>
<path class="st5" d="M241.22,336.83c-1.46,19.82-26.09,23.06-49.88,21.31c-23.79-1.75-37.73-7.84-36.27-27.66
	c1.46-19.82,21.93-34.47,45.72-32.72S242.68,317.01,241.22,336.83z"/>
<path class="st5" d="M155.36,284.33c0,10.78-13.19,13.52-26.13,13.52c-12.94,0-20.73-5.99-20.73-16.77
	c0-10.78,10.49-16.27,23.43-16.27S155.36,273.54,155.36,284.33z"/>
<path class="st5" d="M66.81,318c0,6.87-4.46,8.61-8.82,8.61s-7-3.82-7-10.69c0-6.87,3.54-10.37,7.91-10.37S66.81,311.13,66.81,318z"
	/>
<path class="st6" d="M139.82,73.87c-0.11,0-0.23-0.01-0.35-0.02c-5.33-0.74-11.01-13.06-12.53-23.59
	c-3.63-25.18,1.79-45.34,12.59-46.9c5.5-0.79,11.15,3.39,15.94,11.77c4.4,7.69,7.73,18.23,9.38,29.67
	c1.66,11.53,0.6,17.09-3.67,19.21c-1.24,0.61-2.74,0.11-3.35-1.13c-0.61-1.24-0.11-2.74,1.13-3.35c1.26-0.63,2.45-3.57,0.94-14.02
	c-1.56-10.83-4.67-20.74-8.77-27.9c-3.59-6.29-7.67-9.77-10.88-9.3c-6.62,0.95-11.68,18.12-8.35,41.23
	c1.53,10.6,6.51,18.6,8.34,19.36c1.33,0.23,2.24,1.47,2.05,2.81C142.12,72.96,141.05,73.87,139.82,73.87z M140.27,68.92
	L140.27,68.92L140.27,68.92z"/>
<path class="st4" d="M78.92,367.88c-3.89-53.51-3.81-107.76-3.75-143.66c0.01-3.97,0.01-7.72,0.01-11.25
	c0-62.52,15.88-105.95,48.55-132.77c26.52-21.77,64.61-32.37,116.45-32.39l0.05-0.01l0.13,0c51.9,0.01,90.03,10.6,116.57,32.39
	c32.67,26.82,48.55,70.25,48.55,132.77c0,3.52,0.01,7.28,0.01,11.25c0.05,35.88,0.13,90.1-3.75,143.59l-4.99-0.36
	c3.87-53.3,3.79-107.41,3.73-143.22c-0.01-3.97-0.01-7.73-0.01-11.25c0-60.93-15.28-103.1-46.72-128.9
	c-25.61-21.03-62.71-31.25-113.41-31.25l-0.14,0c-50.64,0.02-87.7,10.24-113.3,31.25c-31.44,25.81-46.72,67.97-46.72,128.9
	c0,3.52-0.01,7.28-0.01,11.25c-0.05,35.83-0.13,89.97,3.74,143.29L78.92,367.88z"/>
<path class="st6" d="M339.18,73.87c-1.23,0-2.3-0.91-2.47-2.16c-0.19-1.34,0.73-2.58,2.05-2.81c1.83-0.76,6.82-8.77,8.34-19.36
	c3.33-23.11-1.73-40.28-8.35-41.23c-6.63-0.95-16.32,14.09-19.65,37.2c-1.5,10.45-0.32,13.39,0.94,14.02
	c1.24,0.61,1.74,2.11,1.13,3.35c-0.61,1.24-2.11,1.74-3.35,1.13c-4.27-2.12-5.33-7.68-3.67-19.21c3.63-25.18,14.5-42.99,25.31-41.44
	c10.8,1.56,16.22,21.72,12.59,46.9c-1.52,10.53-7.2,22.85-12.53,23.59C339.41,73.86,339.29,73.87,339.18,73.87z M338.73,68.92
	L338.73,68.92L338.73,68.92z"/>
<path class="st5" d="M339.19,74.13c0,0,19.39-19.97,31.38-30.82s27.72-13.85,40.4-4.74c13.7,9.84,30.8,22.73,39.08,29.48
	c10.34,8.42,6.2,38.67-33.83,38.67S339.19,74.13,339.19,74.13z"/>
<path class="st5" d="M138.72,74.13c0,0-19.39-19.97-31.38-30.82s-27.72-13.85-40.4-4.74c-13.7,9.84-30.8,22.73-39.08,29.48
	c-10.34,8.42-6.2,38.67,33.83,38.67S138.72,74.13,138.72,74.13z"/>
<path class="st4" d="M226.23,156.17h-5v-35.02c0-6.73-5.48-12.2-12.2-12.2h-20.34c-6.73,0-12.2,5.48-12.2,12.2v35.02h-5v-35.02
	c0-9.49,7.72-17.2,17.2-17.2h20.34c9.49,0,17.2,7.72,17.2,17.2V156.17z"/>
<path class="st4" d="M309.15,156.17h-5v-35.02c0-6.73-5.48-12.2-12.21-12.2H271.6c-6.73,0-12.21,5.48-12.21,12.2v35.02h-5v-35.02
	c0-9.49,7.72-17.2,17.21-17.2h20.34c9.49,0,17.21,7.72,17.21,17.2V156.17z"/>
<path class="st7" d="M201.5,105.73h-5.93c-4.12,0-7.46,3.34-7.46,7.46v12.24c0,4.12,3.34,7.46,7.46,7.46h5.93
	c4.12,0,7.46-3.34,7.46-7.46V113.2C208.96,109.07,205.62,105.73,201.5,105.73z"/>
<path class="st7" d="M284.42,105.73h-5.93c-4.12,0-7.46,3.34-7.46,7.46v12.24c0,4.12,3.34,7.46,7.46,7.46h5.93
	c4.12,0,7.46-3.34,7.46-7.46V113.2C291.88,109.07,288.54,105.73,284.42,105.73z"/>
<g>
	<path class="st1" d="M5.42,335.51c-0.61-3.46-0.6-7.17,0-11.01l0,0c3.25-19.31,17.87-56.46,73.88-68.53v80.2H51.22l5.45,10.72
		c0,0-9.55,10.27-26.44,8.88c-14.65-1.21-22.58-9.13-24.68-19.6h-0.1C5.44,336.17,5.43,335.94,5.42,335.51z"/>
	<path d="M31.75,358.52c-0.04,0-0.09,0-0.13,0c-18.77-0.96-29.12-12.14-29.15-31.48c-0.02-15.27,6.49-37.48,37.65-56.51
		c1.18-0.72,2.72-0.35,3.44,0.83s0.35,2.72-0.83,3.44c-29.18,17.83-35.28,38.25-35.26,52.24c0.02,16.76,8.24,25.67,24.41,26.5
		c1.38,0.07,2.44,1.25,2.37,2.62C34.18,357.48,33.07,358.52,31.75,358.52z"/>
	<path class="st1" d="M474.17,335.51c0.61-3.46,0.6-7.17,0-11.01l0,0c-3.25-19.31-17.87-56.46-73.88-68.53v80.2h28.09l-5.45,10.72
		c0,0,9.55,10.27,26.44,8.88c14.65-1.21,22.58-9.13,24.68-19.6h0.1C474.15,336.17,474.17,335.94,474.17,335.51z"/>
	<path d="M447.84,358.52c-1.32,0-2.43-1.04-2.5-2.37c-0.07-1.38,0.99-2.55,2.37-2.62c16.17-0.83,24.38-9.74,24.41-26.5
		c0.02-13.99-6.08-34.42-35.26-52.24c-1.18-0.72-1.55-2.26-0.83-3.44c0.72-1.18,2.26-1.55,3.44-0.83
		c31.16,19.04,37.67,41.24,37.65,56.51c-0.03,19.34-10.38,30.52-29.15,31.48C447.93,358.52,447.89,358.52,447.84,358.52z"/>
	<g>
		<path class="st2" d="M41.99,367.7V234.25c0-14.48,11.74-26.21,26.21-26.21H411.6c14.48,0,26.21,11.74,26.21,26.21V367.7"/>
		<path class="st7" d="M437.82,370.2c-1.38,0-2.5-1.12-2.5-2.5V234.25c0-13.08-10.64-23.71-23.71-23.71H68.21
			c-13.08,0-23.71,10.64-23.71,23.71V367.7c0,1.38-1.12,2.5-2.5,2.5s-2.5-1.12-2.5-2.5V234.25c0-15.83,12.88-28.71,28.71-28.71
			H411.6c15.83,0,28.71,12.88,28.71,28.71V367.7C440.32,369.08,439.2,370.2,437.82,370.2z"/>
	</g>
	<path class="st1" d="M435.16,307.82c2.22-0.9,4.6-1.65,7.17-2.25"/>
	<path class="st10" d="M443.89,355.74c-12.43-1.74-20.88-9.07-20.88-9.07l7.41-13.52l-12.72-10.18c5.52-6.99,11.28-11.77,18.78-14.8
		"/>
	<path d="M445.86,358.57c-16.58,0-25.66-10.15-26.05-10.6c-0.69-0.79-0.81-1.93-0.31-2.85l6.4-11.67l-11.08-8.86
		c-1.07-0.86-1.25-2.42-0.4-3.5c7.83-9.91,16.01-15.28,27.34-17.94c1.35-0.31,2.69,0.52,3.01,1.86c0.32,1.34-0.52,2.69-1.86,3.01
		c-9.52,2.24-16.33,6.43-22.98,14.25l10.74,8.6c0.95,0.76,1.21,2.09,0.63,3.15l-6.5,11.86c2.86,2.56,10.65,8.27,22.93,7.65
		c1.4-0.07,2.55,0.99,2.62,2.37c0.07,1.38-0.99,2.55-2.37,2.62C447.26,358.55,446.55,358.57,445.86,358.57z"/>
	<path d="M443.89,358.24c-1.24,0-2.32-0.92-2.48-2.19l-6.03-47.93c-0.17-1.37,0.8-2.62,2.17-2.79c1.37-0.18,2.62,0.8,2.79,2.17
		l6.03,47.93c0.17,1.37-0.8,2.62-2.17,2.79C444.1,358.23,443.99,358.24,443.89,358.24z"/>
	<path class="st1" d="M44.44,307.82c-2.22-0.9-4.6-1.65-7.17-2.25"/>
	<path class="st11" d="M36.41,356.07c12.43-1.74,21.49-9.75,21.49-9.75l-7.41-13.52l12.72-10.18c-5.52-6.99-11.28-11.77-18.78-14.8"
		/>
	<path d="M33.74,358.57c-0.69,0-1.4-0.02-2.12-0.05c-1.38-0.07-2.44-1.25-2.37-2.62c0.07-1.38,1.24-2.44,2.62-2.37
		c12.25,0.62,20.06-5.08,22.93-7.65l-6.5-11.86c-0.58-1.07-0.32-2.4,0.63-3.15l10.74-8.6c-6.65-7.82-13.46-12.01-22.98-14.25
		c-1.34-0.32-2.18-1.66-1.86-3.01c0.32-1.34,1.66-2.18,3.01-1.86c11.33,2.66,19.5,8.03,27.34,17.94c0.85,1.08,0.67,2.64-0.4,3.5
		l-11.08,8.86l6.4,11.67c0.5,0.92,0.38,2.06-0.31,2.85C59.39,348.42,50.32,358.57,33.74,358.57z"/>
	<path d="M35.71,358.24c-0.1,0-0.21-0.01-0.31-0.02c-1.37-0.17-2.34-1.42-2.17-2.79l6.03-47.93c0.17-1.37,1.43-2.34,2.79-2.17
		c1.37,0.17,2.34,1.42,2.17,2.79l-6.03,47.93C38.02,357.31,36.95,358.24,35.71,358.24z"/>
</g>
</svg>
