<svg xmlns="http://www.w3.org/2000/svg" xmlns:xlink="http://www.w3.org/1999/xlink" width="500" zoomAndPan="magnify" viewBox="0 0 375 60" height="80" preserveAspectRatio="xMidYMid meet" version="1.0"><defs><clipPath id="d5bc78bd18"><path d="M 356 50 L 364 50 L 364 58.871094 L 356 58.871094 Z M 356 50 " clip-rule="nonzero"/></clipPath><clipPath id="92f84076bd"><path d="M 302 2 L 345 2 L 345 58.871094 L 302 58.871094 Z M 302 2 " clip-rule="nonzero"/></clipPath><clipPath id="20093f9a6b"><path d="M 187 2 L 247 2 L 247 58.871094 L 187 58.871094 Z M 187 2 " clip-rule="nonzero"/></clipPath><clipPath id="fb789cb381"><path d="M 252 2 L 302 2 L 302 58.871094 L 252 58.871094 Z M 252 2 " clip-rule="nonzero"/></clipPath></defs><path fill="#323232" d="M 111.949219 5.464844 L 97.15625 5.464844 C 88.027344 5.464844 80.621094 12.914062 80.621094 22.105469 L 80.621094 39.859375 C 80.621094 40.289062 80.65625 40.710938 80.683594 41.140625 C 80.671875 41.105469 80.65625 41.066406 80.644531 41.039062 C 80.734375 43.992188 80.644531 47.308594 79.675781 49.167969 C 78.070312 52.253906 75.300781 53.410156 75.300781 53.410156 C 75.300781 53.410156 79.851562 55.582031 85.089844 52.984375 L 86.292969 52.386719 C 89.195312 54.9375 92.988281 56.5 97.15625 56.5 L 111.949219 56.5 C 121.078125 56.5 128.480469 49.046875 128.480469 39.859375 L 128.480469 22.109375 C 128.480469 12.914062 121.078125 5.464844 111.949219 5.464844 Z M 111.949219 5.464844 " fill-opacity="1" fill-rule="nonzero"/><path fill="#75c7c9" d="M 177.410156 48.390625 C 176.441406 46.535156 176.351562 43.214844 176.441406 40.261719 C 176.429688 40.289062 176.417969 40.324219 176.40625 40.347656 L 176.40625 40.144531 C 176.414062 39.972656 176.417969 39.804688 176.417969 39.636719 L 176.417969 21.878906 C 176.417969 12.6875 169.015625 5.234375 159.886719 5.234375 L 145.007812 5.234375 C 136.421875 5.234375 129.363281 11.828125 128.554688 20.257812 L 128.554688 21.371094 C 128.550781 21.542969 128.542969 21.707031 128.542969 21.878906 L 128.542969 39.628906 C 128.542969 48.820312 135.945312 56.269531 145.074219 56.269531 L 159.953125 56.269531 C 164.300781 56.269531 168.246094 54.574219 171.195312 51.816406 L 171.992188 52.214844 C 177.226562 54.8125 181.777344 52.640625 181.777344 52.640625 C 181.777344 52.640625 179.015625 51.480469 177.410156 48.390625 Z M 177.410156 48.390625 " fill-opacity="1" fill-rule="nonzero"/><path fill="#75c7c9" d="M 128.542969 39.628906 L 128.542969 21.878906 C 128.542969 21.707031 128.550781 21.535156 128.554688 21.371094 L 128.554688 20.257812 C 128.503906 20.796875 128.476562 21.332031 128.476562 21.878906 L 128.476562 39.628906 C 128.476562 48.820312 135.878906 56.269531 145.007812 56.269531 L 145.074219 56.269531 C 135.945312 56.269531 128.542969 48.820312 128.542969 39.628906 Z M 128.542969 39.628906 " fill-opacity="1" fill-rule="nonzero"/><path fill="#75c7c9" d="M 176.414062 41.246094 C 176.417969 41.214844 176.417969 41.183594 176.417969 41.152344 C 176.417969 41.167969 176.414062 41.179688 176.414062 41.195312 Z M 176.414062 41.246094 " fill-opacity="1" fill-rule="nonzero"/><path fill="#75c7c9" d="M 176.425781 21.878906 L 176.425781 25.324219 L 176.492188 25.277344 L 176.492188 21.871094 C 176.492188 12.683594 169.089844 5.230469 159.960938 5.230469 L 159.890625 5.230469 C 169.019531 5.234375 176.425781 12.683594 176.425781 21.878906 Z M 176.425781 21.878906 " fill-opacity="1" fill-rule="nonzero"/><path fill="#75c7c9" d="M 176.425781 39.628906 C 176.425781 39.800781 176.417969 39.972656 176.414062 40.136719 L 176.414062 41.195312 C 176.414062 41.179688 176.417969 41.167969 176.417969 41.152344 C 176.464844 40.648438 176.492188 40.144531 176.492188 39.625 L 176.492188 25.277344 L 176.425781 25.324219 Z M 176.425781 39.628906 " fill-opacity="1" fill-rule="nonzero"/><path fill="#75c7c9" d="M 176.289062 42.210938 C 176.339844 41.890625 176.378906 41.574219 176.414062 41.246094 L 176.414062 41.195312 C 176.355469 41.550781 176.3125 41.886719 176.289062 42.210938 Z M 176.289062 42.210938 " fill-opacity="1" fill-rule="nonzero"/><path fill="#ffffff" d="M 170.046875 30.753906 C 170.046875 31.332031 170.015625 31.914062 169.960938 32.488281 C 169.90625 33.066406 169.820312 33.640625 169.707031 34.210938 C 169.59375 34.777344 169.457031 35.339844 169.289062 35.894531 C 169.121094 36.449219 168.925781 36.996094 168.707031 37.53125 C 168.484375 38.066406 168.238281 38.589844 167.96875 39.101562 C 167.695312 39.613281 167.398438 40.113281 167.082031 40.59375 C 166.761719 41.078125 166.417969 41.542969 166.050781 41.992188 C 165.6875 42.4375 165.300781 42.867188 164.890625 43.277344 C 164.484375 43.6875 164.058594 44.078125 163.613281 44.445312 C 163.167969 44.8125 162.703125 45.160156 162.226562 45.480469 C 161.746094 45.804688 161.253906 46.101562 160.746094 46.375 C 160.234375 46.648438 159.714844 46.894531 159.183594 47.117188 C 158.652344 47.339844 158.109375 47.535156 157.558594 47.703125 C 157.007812 47.871094 156.449219 48.011719 155.882812 48.125 C 155.316406 48.238281 154.746094 48.324219 154.175781 48.382812 C 153.601562 48.4375 153.027344 48.464844 152.449219 48.464844 C 151.875 48.464844 151.296875 48.4375 150.726562 48.382812 C 150.152344 48.324219 149.582031 48.238281 149.015625 48.125 C 148.453125 48.011719 147.894531 47.871094 147.34375 47.703125 C 146.789062 47.535156 146.25 47.339844 145.714844 47.117188 C 145.183594 46.894531 144.664062 46.648438 144.15625 46.375 C 143.648438 46.101562 143.152344 45.804688 142.675781 45.480469 C 142.195312 45.160156 141.730469 44.8125 141.285156 44.445312 C 140.839844 44.078125 140.414062 43.6875 140.007812 43.277344 C 139.601562 42.867188 139.214844 42.4375 138.847656 41.992188 C 138.480469 41.542969 138.140625 41.078125 137.820312 40.59375 C 137.5 40.113281 137.203125 39.613281 136.929688 39.101562 C 136.660156 38.589844 136.414062 38.066406 136.191406 37.53125 C 135.972656 36.996094 135.777344 36.449219 135.613281 35.894531 C 135.445312 35.339844 135.304688 34.777344 135.191406 34.210938 C 135.078125 33.640625 134.996094 33.066406 134.9375 32.488281 C 134.882812 31.914062 134.855469 31.332031 134.855469 30.753906 C 134.855469 30.171875 134.882812 29.59375 134.9375 29.019531 C 134.996094 28.441406 135.078125 27.867188 135.191406 27.296875 C 135.304688 26.730469 135.445312 26.167969 135.613281 25.613281 C 135.777344 25.058594 135.972656 24.511719 136.191406 23.976562 C 136.414062 23.441406 136.660156 22.914062 136.929688 22.402344 C 137.203125 21.894531 137.5 21.394531 137.820312 20.914062 C 138.140625 20.429688 138.480469 19.964844 138.847656 19.515625 C 139.214844 19.070312 139.601562 18.640625 140.007812 18.230469 C 140.414062 17.820312 140.839844 17.429688 141.285156 17.0625 C 141.730469 16.695312 142.195312 16.347656 142.675781 16.027344 C 143.152344 15.703125 143.648438 15.40625 144.15625 15.132812 C 144.664062 14.859375 145.183594 14.613281 145.714844 14.390625 C 146.25 14.167969 146.789062 13.972656 147.34375 13.804688 C 147.894531 13.636719 148.453125 13.496094 149.015625 13.382812 C 149.582031 13.269531 150.152344 13.183594 150.726562 13.125 C 151.296875 13.070312 151.875 13.042969 152.449219 13.042969 C 153.027344 13.042969 153.601562 13.070312 154.175781 13.125 C 154.746094 13.183594 155.316406 13.269531 155.882812 13.382812 C 156.449219 13.496094 157.007812 13.636719 157.558594 13.804688 C 158.109375 13.972656 158.652344 14.167969 159.183594 14.390625 C 159.714844 14.613281 160.234375 14.859375 160.746094 15.132812 C 161.253906 15.40625 161.746094 15.703125 162.226562 16.027344 C 162.703125 16.347656 163.167969 16.695312 163.613281 17.0625 C 164.058594 17.429688 164.484375 17.820312 164.890625 18.230469 C 165.300781 18.640625 165.6875 19.070312 166.050781 19.515625 C 166.417969 19.964844 166.761719 20.429688 167.082031 20.914062 C 167.398438 21.394531 167.695312 21.894531 167.96875 22.402344 C 168.238281 22.914062 168.484375 23.441406 168.707031 23.976562 C 168.925781 24.511719 169.121094 25.058594 169.289062 25.613281 C 169.457031 26.167969 169.59375 26.730469 169.707031 27.296875 C 169.820312 27.867188 169.90625 28.441406 169.960938 29.019531 C 170.015625 29.59375 170.046875 30.171875 170.046875 30.753906 Z M 170.046875 30.753906 " fill-opacity="1" fill-rule="nonzero"/><path fill="#ffffff" d="M 122.101562 31.214844 C 122.101562 31.796875 122.074219 32.375 122.019531 32.953125 C 121.960938 33.527344 121.875 34.101562 121.765625 34.671875 C 121.652344 35.238281 121.511719 35.800781 121.34375 36.355469 C 121.175781 36.910156 120.984375 37.457031 120.761719 37.992188 C 120.542969 38.53125 120.296875 39.054688 120.023438 39.566406 C 119.753906 40.078125 119.457031 40.574219 119.136719 41.054688 C 118.816406 41.539062 118.472656 42.003906 118.109375 42.453125 C 117.742188 42.898438 117.355469 43.328125 116.949219 43.738281 C 116.542969 44.148438 116.113281 44.539062 115.667969 44.90625 C 115.222656 45.273438 114.761719 45.621094 114.28125 45.941406 C 113.804688 46.265625 113.308594 46.5625 112.800781 46.835938 C 112.292969 47.109375 111.773438 47.355469 111.238281 47.578125 C 110.707031 47.800781 110.164062 47.996094 109.613281 48.164062 C 109.0625 48.332031 108.503906 48.472656 107.9375 48.585938 C 107.375 48.699219 106.804688 48.785156 106.230469 48.84375 C 105.65625 48.898438 105.082031 48.925781 104.507812 48.925781 C 103.929688 48.925781 103.355469 48.898438 102.78125 48.84375 C 102.207031 48.785156 101.640625 48.699219 101.074219 48.585938 C 100.507812 48.472656 99.949219 48.332031 99.398438 48.164062 C 98.847656 47.996094 98.304688 47.800781 97.773438 47.578125 C 97.242188 47.355469 96.71875 47.109375 96.210938 46.835938 C 95.703125 46.5625 95.210938 46.265625 94.730469 45.941406 C 94.25 45.621094 93.789062 45.273438 93.34375 44.90625 C 92.898438 44.539062 92.472656 44.148438 92.0625 43.738281 C 91.65625 43.328125 91.269531 42.898438 90.90625 42.453125 C 90.539062 42.003906 90.195312 41.539062 89.875 41.054688 C 89.554688 40.574219 89.261719 40.078125 88.988281 39.566406 C 88.714844 39.054688 88.46875 38.53125 88.25 37.992188 C 88.03125 37.457031 87.835938 36.910156 87.667969 36.355469 C 87.5 35.800781 87.359375 35.238281 87.25 34.671875 C 87.136719 34.101562 87.050781 33.527344 86.996094 32.953125 C 86.9375 32.375 86.910156 31.796875 86.910156 31.214844 C 86.910156 30.636719 86.9375 30.054688 86.996094 29.480469 C 87.050781 28.902344 87.136719 28.328125 87.25 27.757812 C 87.359375 27.191406 87.5 26.628906 87.667969 26.074219 C 87.835938 25.519531 88.03125 24.972656 88.25 24.4375 C 88.46875 23.902344 88.714844 23.378906 88.988281 22.867188 C 89.261719 22.355469 89.554688 21.855469 89.875 21.375 C 90.195312 20.890625 90.539062 20.425781 90.90625 19.980469 C 91.269531 19.53125 91.65625 19.101562 92.0625 18.691406 C 92.472656 18.28125 92.898438 17.890625 93.34375 17.523438 C 93.789062 17.15625 94.25 16.808594 94.730469 16.488281 C 95.210938 16.164062 95.703125 15.867188 96.210938 15.59375 C 96.71875 15.320312 97.242188 15.074219 97.773438 14.851562 C 98.304688 14.628906 98.847656 14.433594 99.398438 14.265625 C 99.949219 14.097656 100.507812 13.957031 101.074219 13.84375 C 101.640625 13.730469 102.207031 13.644531 102.78125 13.589844 C 103.355469 13.53125 103.929688 13.503906 104.507812 13.503906 C 105.082031 13.503906 105.65625 13.53125 106.230469 13.589844 C 106.804688 13.644531 107.375 13.730469 107.9375 13.84375 C 108.503906 13.957031 109.0625 14.097656 109.613281 14.265625 C 110.164062 14.433594 110.707031 14.628906 111.238281 14.851562 C 111.773438 15.074219 112.292969 15.320312 112.800781 15.59375 C 113.308594 15.867188 113.804688 16.164062 114.28125 16.488281 C 114.761719 16.808594 115.222656 17.15625 115.667969 17.523438 C 116.113281 17.890625 116.542969 18.28125 116.949219 18.691406 C 117.355469 19.101562 117.742188 19.53125 118.109375 19.980469 C 118.472656 20.425781 118.816406 20.890625 119.136719 21.375 C 119.457031 21.855469 119.753906 22.355469 120.023438 22.867188 C 120.296875 23.378906 120.542969 23.902344 120.761719 24.4375 C 120.984375 24.972656 121.175781 25.519531 121.34375 26.074219 C 121.511719 26.628906 121.652344 27.191406 121.765625 27.757812 C 121.875 28.328125 121.960938 28.902344 122.019531 29.480469 C 122.074219 30.054688 122.101562 30.636719 122.101562 31.214844 Z M 122.101562 31.214844 " fill-opacity="1" fill-rule="nonzero"/><path fill="#323232" d="M 111.960938 26.503906 C 111.371094 26.503906 110.886719 26.851562 110.753906 27.375 L 109.515625 32.566406 L 108.011719 26.066406 C 107.839844 25.371094 107.21875 24.917969 106.414062 24.917969 C 105.632812 24.917969 105 25.382812 104.835938 26.070312 L 103.226562 33.011719 L 100.503906 25.769531 C 100.289062 25.214844 99.71875 24.867188 99.015625 24.867188 C 98.144531 24.867188 97.269531 25.433594 97.269531 26.515625 L 97.269531 36.332031 C 97.269531 36.964844 97.78125 37.441406 98.46875 37.441406 C 99.152344 37.441406 99.667969 36.964844 99.667969 36.332031 L 99.667969 30.046875 L 101.800781 35.761719 C 102.117188 36.59375 102.632812 37.019531 103.335938 37.027344 L 103.335938 37.050781 C 104.128906 37.050781 104.765625 36.570312 104.929688 35.851562 L 106.4375 29.4375 L 107.90625 35.851562 C 108.070312 36.570312 108.707031 37.050781 109.492188 37.050781 C 110.285156 37.050781 110.9375 36.570312 111.117188 35.863281 L 113.15625 27.921875 C 113.171875 27.832031 113.195312 27.734375 113.195312 27.632812 C 113.195312 26.988281 112.664062 26.503906 111.960938 26.503906 Z M 111.960938 26.503906 " fill-opacity="1" fill-rule="nonzero"/><path fill="#75c7c9" d="M 160.90625 34.355469 L 158.875 26.433594 C 158.691406 25.722656 158.042969 25.25 157.25 25.25 C 156.46875 25.25 155.828125 25.730469 155.664062 26.445312 L 154.191406 32.863281 L 152.6875 26.445312 C 152.523438 25.730469 151.882812 25.25 151.089844 25.25 L 151.089844 25.273438 C 150.390625 25.277344 149.875 25.707031 149.558594 26.539062 L 147.425781 32.253906 L 147.425781 25.972656 C 147.425781 25.339844 146.910156 24.863281 146.222656 24.863281 C 145.539062 24.863281 145.023438 25.339844 145.023438 25.972656 L 145.023438 35.789062 C 145.023438 36.867188 145.902344 37.4375 146.773438 37.4375 C 147.476562 37.4375 148.046875 37.09375 148.261719 36.53125 L 150.984375 29.296875 L 152.589844 36.234375 C 152.753906 36.921875 153.394531 37.378906 154.171875 37.378906 C 154.96875 37.378906 155.597656 36.929688 155.765625 36.230469 L 157.265625 29.726562 L 158.503906 34.917969 C 158.636719 35.4375 159.117188 35.789062 159.710938 35.789062 C 160.414062 35.789062 160.945312 35.304688 160.945312 34.667969 C 160.945312 34.570312 160.929688 34.46875 160.90625 34.355469 Z M 160.90625 34.355469 " fill-opacity="1" fill-rule="nonzero"/><path fill="#75c7c9" d="M 62.980469 52.414062 C 62.980469 52.914062 62.886719 53.390625 62.699219 53.851562 C 62.507812 54.3125 62.238281 54.71875 61.890625 55.070312 C 61.539062 55.421875 61.136719 55.691406 60.679688 55.882812 C 60.222656 56.074219 59.746094 56.167969 59.25 56.167969 C 58.757812 56.167969 58.28125 56.074219 57.824219 55.882812 C 57.367188 55.691406 56.964844 55.421875 56.613281 55.070312 C 56.265625 54.71875 55.996094 54.3125 55.804688 53.851562 C 55.617188 53.390625 55.523438 52.914062 55.523438 52.414062 C 55.523438 51.917969 55.617188 51.4375 55.804688 50.976562 C 55.996094 50.519531 56.265625 50.113281 56.613281 49.757812 C 56.964844 49.40625 57.367188 49.136719 57.824219 48.945312 C 58.28125 48.753906 58.757812 48.660156 59.25 48.660156 C 59.746094 48.660156 60.222656 48.753906 60.679688 48.945312 C 61.136719 49.136719 61.539062 49.40625 61.890625 49.757812 C 62.238281 50.113281 62.507812 50.519531 62.699219 50.976562 C 62.886719 51.4375 62.980469 51.917969 62.980469 52.414062 Z M 62.980469 52.414062 " fill-opacity="1" fill-rule="nonzero"/><path fill="#323232" d="M 59.222656 2.84375 C 57.65625 2.84375 56.234375 3.773438 55.589844 5.207031 L 37.070312 37.480469 L 36.285156 38.855469 C 36.285156 38.859375 36.273438 38.878906 36.269531 38.882812 C 36.21875 38.957031 36.125 39.003906 36.023438 39.003906 C 35.921875 39.003906 35.832031 38.953125 35.769531 38.867188 L 35.210938 37.886719 L 16.46875 5.207031 C 15.824219 3.773438 14.398438 2.84375 12.835938 2.84375 C 10.636719 2.84375 8.847656 4.644531 8.847656 6.859375 L 8.847656 52.460938 C 8.847656 54.675781 10.636719 56.476562 12.835938 56.476562 C 15.039062 56.476562 16.828125 54.675781 16.828125 52.460938 L 16.828125 23.109375 C 16.832031 23.085938 16.832031 23.058594 16.832031 23.035156 C 16.832031 22.863281 16.96875 22.726562 17.136719 22.726562 C 17.230469 22.726562 17.3125 22.765625 17.371094 22.839844 L 32.632812 49.457031 C 32.652344 49.484375 32.667969 49.507812 32.683594 49.53125 C 33.425781 50.675781 34.671875 51.359375 36.03125 51.359375 C 37.386719 51.359375 38.632812 50.675781 39.375 49.527344 C 39.390625 49.503906 39.410156 49.480469 39.425781 49.457031 L 54.703125 22.824219 C 54.757812 22.753906 54.84375 22.714844 54.929688 22.714844 C 55.097656 22.714844 55.234375 22.851562 55.234375 23.023438 L 55.234375 40.160156 C 55.234375 40.207031 55.238281 40.246094 55.25 40.285156 C 55.425781 42.351562 57.152344 43.960938 59.222656 43.960938 C 61.300781 43.960938 63.027344 42.351562 63.195312 40.28125 C 63.207031 40.238281 63.214844 40.199219 63.214844 40.160156 L 63.214844 6.859375 C 63.214844 4.644531 61.425781 2.84375 59.222656 2.84375 Z M 59.222656 2.84375 " fill-opacity="1" fill-rule="nonzero"/><path fill="#75c7c9" d="M 248.175781 4.917969 C 247.664062 4.046875 246.835938 3.425781 245.855469 3.179688 C 243.835938 2.660156 241.777344 3.898438 241.265625 5.929688 C 240.757812 7.964844 241.980469 10.039062 244 10.550781 C 244.3125 10.632812 244.621094 10.671875 244.933594 10.671875 C 245.609375 10.671875 246.269531 10.488281 246.859375 10.136719 C 247.722656 9.617188 248.339844 8.785156 248.585938 7.800781 C 248.839844 6.808594 248.691406 5.789062 248.175781 4.917969 Z M 248.175781 4.917969 " fill-opacity="1" fill-rule="nonzero"/><path fill="#323232" d="M 364.121094 6.636719 C 364.136719 6.238281 364.097656 5.847656 364.003906 5.457031 C 363.832031 4.792969 363.5 4.175781 363.027344 3.679688 C 362.277344 2.882812 361.222656 2.425781 360.136719 2.425781 C 359.808594 2.425781 359.476562 2.46875 359.15625 2.554688 C 358.433594 2.734375 357.777344 3.121094 357.261719 3.667969 C 356.515625 4.457031 356.113281 5.527344 356.152344 6.605469 L 356.152344 6.636719 L 357.210938 43.59375 C 357.277344 45.640625 358.734375 46.707031 360.136719 46.707031 C 361.496094 46.707031 362.996094 45.730469 363.0625 43.59375 L 364.121094 6.660156 Z M 364.121094 6.636719 " fill-opacity="1" fill-rule="nonzero"/><g clip-path="url(#d5bc78bd18)"><path fill="#75c7c9" d="M 361.058594 50.664062 C 360.082031 50.414062 359.066406 50.5625 358.195312 51.085938 C 357.328125 51.605469 356.710938 52.4375 356.46875 53.421875 C 356.21875 54.410156 356.367188 55.429688 356.886719 56.304688 C 357.410156 57.183594 358.230469 57.796875 359.203125 58.042969 C 359.515625 58.121094 359.824219 58.164062 360.132812 58.164062 C 361.816406 58.164062 363.363281 57.011719 363.792969 55.292969 C 364.308594 53.257812 363.078125 51.183594 361.058594 50.664062 Z M 361.058594 50.664062 " fill-opacity="1" fill-rule="nonzero"/></g><g clip-path="url(#92f84076bd)"><path fill="#323232" d="M 344.738281 6.109375 C 344.539062 5.054688 343.9375 4.140625 343.0625 3.539062 C 342.398438 3.082031 341.625 2.84375 340.820312 2.84375 C 339.496094 2.84375 338.261719 3.5 337.515625 4.605469 L 324.71875 23.558594 L 324.125 24.441406 L 324.066406 24.519531 C 324.027344 24.566406 323.953125 24.628906 323.839844 24.628906 C 323.738281 24.628906 323.648438 24.578125 323.59375 24.5 L 322.800781 23.324219 L 310.160156 4.605469 C 309.421875 3.503906 308.179688 2.84375 306.855469 2.84375 C 306.058594 2.84375 305.285156 3.082031 304.617188 3.539062 C 303.734375 4.140625 303.136719 5.054688 302.941406 6.109375 C 302.742188 7.160156 302.960938 8.234375 303.558594 9.117188 L 319.855469 33.261719 L 319.855469 53.882812 C 319.84375 54.019531 319.835938 54.15625 319.835938 54.289062 C 319.835938 56.503906 321.621094 58.304688 323.824219 58.304688 C 325.980469 58.304688 327.746094 56.574219 327.816406 54.414062 C 327.832031 54.375 327.835938 54.328125 327.835938 54.289062 L 327.835938 33.226562 L 344.113281 9.109375 C 344.71875 8.234375 344.933594 7.160156 344.738281 6.109375 Z M 344.738281 6.109375 " fill-opacity="1" fill-rule="nonzero"/></g><g clip-path="url(#20093f9a6b)"><path fill="#323232" d="M 245.613281 15.707031 C 245.070312 14.785156 244.199219 14.136719 243.164062 13.867188 C 242.839844 13.789062 242.511719 13.742188 242.179688 13.742188 C 240.351562 13.742188 238.757812 14.988281 238.3125 16.773438 C 238.308594 16.789062 238.300781 16.8125 238.300781 16.828125 C 238.296875 16.839844 238.296875 16.851562 238.289062 16.871094 L 232.753906 38.859375 C 232.75 38.871094 232.75 38.882812 232.742188 38.890625 L 232.726562 38.957031 C 232.726562 38.96875 232.722656 38.980469 232.722656 38.984375 C 232.714844 39.019531 232.699219 39.054688 232.679688 39.089844 L 232.664062 39.117188 C 232.609375 39.195312 232.515625 39.242188 232.421875 39.242188 C 232.324219 39.242188 232.234375 39.195312 232.175781 39.117188 L 232.160156 39.09375 C 232.148438 39.078125 232.144531 39.058594 232.136719 39.042969 L 222.019531 8.519531 C 222.011719 8.507812 222.011719 8.496094 222.007812 8.484375 C 222 8.464844 221.996094 8.457031 221.996094 8.4375 C 221.988281 8.414062 221.980469 8.390625 221.972656 8.371094 C 221.945312 8.289062 221.917969 8.222656 221.886719 8.152344 C 221.867188 8.097656 221.835938 8.035156 221.808594 7.976562 C 221.78125 7.917969 221.753906 7.863281 221.722656 7.8125 C 221.691406 7.75 221.65625 7.6875 221.621094 7.628906 C 221.59375 7.582031 221.566406 7.539062 221.539062 7.492188 C 221.492188 7.425781 221.453125 7.359375 221.40625 7.304688 C 221.378906 7.265625 221.34375 7.222656 221.3125 7.183594 C 221.253906 7.117188 221.210938 7.058594 221.164062 7.007812 C 221.125 6.960938 221.078125 6.917969 221.035156 6.878906 C 220.984375 6.824219 220.9375 6.78125 220.890625 6.742188 C 220.839844 6.695312 220.785156 6.648438 220.734375 6.605469 C 220.683594 6.558594 220.644531 6.53125 220.597656 6.496094 C 220.542969 6.449219 220.480469 6.410156 220.417969 6.371094 C 220.359375 6.332031 220.320312 6.300781 220.273438 6.277344 C 220.21875 6.246094 220.15625 6.210938 220.09375 6.175781 C 220.039062 6.148438 219.980469 6.121094 219.925781 6.089844 C 219.867188 6.0625 219.8125 6.039062 219.753906 6.015625 C 219.6875 5.988281 219.617188 5.960938 219.550781 5.9375 C 219.515625 5.925781 219.492188 5.914062 219.472656 5.910156 C 219.449219 5.902344 219.425781 5.890625 219.398438 5.886719 C 219.308594 5.855469 219.234375 5.839844 219.160156 5.816406 C 219.105469 5.804688 219.046875 5.789062 218.992188 5.777344 C 218.917969 5.761719 218.847656 5.75 218.773438 5.738281 C 218.71875 5.726562 218.65625 5.71875 218.59375 5.714844 C 218.527344 5.710938 218.457031 5.703125 218.390625 5.699219 C 218.328125 5.691406 218.261719 5.691406 218.199219 5.691406 C 218.136719 5.691406 218.066406 5.691406 218.003906 5.699219 C 217.9375 5.703125 217.871094 5.703125 217.800781 5.714844 C 217.738281 5.71875 217.683594 5.726562 217.621094 5.738281 C 217.546875 5.75 217.480469 5.761719 217.40625 5.777344 C 217.347656 5.789062 217.292969 5.800781 217.234375 5.816406 C 217.164062 5.835938 217.089844 5.855469 217.015625 5.878906 C 216.976562 5.890625 216.953125 5.898438 216.925781 5.902344 C 216.902344 5.910156 216.878906 5.917969 216.863281 5.925781 C 216.78125 5.953125 216.714844 5.984375 216.648438 6.011719 C 216.589844 6.035156 216.527344 6.0625 216.472656 6.089844 C 216.414062 6.121094 216.359375 6.148438 216.308594 6.175781 C 216.246094 6.210938 216.183594 6.246094 216.121094 6.277344 C 216.074219 6.308594 216.035156 6.335938 215.992188 6.363281 C 215.917969 6.414062 215.855469 6.457031 215.796875 6.5 C 215.757812 6.53125 215.71875 6.5625 215.679688 6.597656 C 215.613281 6.65625 215.554688 6.699219 215.503906 6.746094 C 215.457031 6.785156 215.414062 6.832031 215.375 6.871094 C 215.324219 6.921875 215.277344 6.96875 215.238281 7.015625 C 215.191406 7.066406 215.148438 7.121094 215.101562 7.171875 C 215.058594 7.222656 215.027344 7.265625 214.996094 7.308594 C 214.949219 7.367188 214.910156 7.429688 214.871094 7.492188 C 214.835938 7.542969 214.800781 7.589844 214.78125 7.632812 C 214.746094 7.691406 214.710938 7.753906 214.679688 7.816406 C 214.648438 7.875 214.621094 7.929688 214.59375 7.988281 C 214.566406 8.046875 214.542969 8.101562 214.519531 8.160156 C 214.492188 8.226562 214.460938 8.296875 214.441406 8.363281 C 214.429688 8.398438 214.417969 8.421875 214.410156 8.4375 C 214.40625 8.457031 214.402344 8.464844 214.402344 8.484375 C 214.394531 8.496094 214.394531 8.507812 214.390625 8.519531 L 205.566406 35.15625 L 204.296875 38.980469 C 204.292969 38.992188 204.292969 38.996094 204.292969 39.007812 C 204.292969 39.007812 204.285156 39.027344 204.285156 39.03125 C 204.273438 39.066406 204.265625 39.089844 204.257812 39.09375 L 204.242188 39.121094 C 204.183594 39.203125 204.09375 39.25 203.996094 39.25 C 203.902344 39.25 203.8125 39.203125 203.753906 39.121094 L 203.738281 39.101562 C 203.714844 39.058594 203.703125 39.027344 203.699219 38.996094 C 203.699219 38.984375 203.691406 38.976562 203.691406 38.96875 L 203.675781 38.90625 L 203.082031 36.546875 L 195.351562 5.875 C 194.902344 4.089844 193.3125 2.84375 191.484375 2.84375 C 191.15625 2.84375 190.820312 2.882812 190.5 2.96875 C 188.367188 3.515625 187.070312 5.703125 187.613281 7.851562 L 199.539062 55.222656 C 199.539062 55.234375 199.542969 55.238281 199.542969 55.25 C 199.542969 55.261719 199.550781 55.273438 199.550781 55.285156 C 199.550781 55.296875 199.5625 55.324219 199.566406 55.332031 C 199.582031 55.386719 199.601562 55.449219 199.621094 55.519531 L 199.628906 55.542969 L 199.640625 55.585938 C 199.652344 55.628906 199.667969 55.671875 199.679688 55.714844 C 199.695312 55.753906 199.714844 55.792969 199.730469 55.839844 L 199.746094 55.878906 L 199.765625 55.917969 C 199.789062 55.976562 199.808594 56.03125 199.839844 56.082031 C 199.847656 56.105469 199.859375 56.128906 199.878906 56.15625 L 199.890625 56.179688 C 199.933594 56.265625 199.980469 56.34375 200.023438 56.425781 C 200.035156 56.441406 200.046875 56.460938 200.058594 56.476562 C 200.121094 56.574219 200.175781 56.660156 200.246094 56.746094 C 200.261719 56.765625 200.28125 56.785156 200.296875 56.808594 L 200.3125 56.824219 C 200.371094 56.898438 200.433594 56.964844 200.496094 57.035156 C 200.527344 57.074219 200.566406 57.109375 200.609375 57.148438 L 200.640625 57.175781 L 200.675781 57.210938 C 200.703125 57.238281 200.738281 57.273438 200.773438 57.300781 C 200.828125 57.355469 200.890625 57.398438 200.949219 57.449219 L 200.96875 57.46875 L 201 57.492188 C 201.019531 57.507812 201.042969 57.53125 201.070312 57.546875 C 201.128906 57.585938 201.183594 57.628906 201.242188 57.660156 L 201.269531 57.679688 L 201.304688 57.703125 C 201.332031 57.722656 201.367188 57.742188 201.394531 57.757812 C 201.441406 57.785156 201.484375 57.808594 201.523438 57.832031 L 201.5625 57.855469 L 201.597656 57.871094 C 201.644531 57.894531 201.695312 57.921875 201.746094 57.945312 C 201.78125 57.964844 201.8125 57.976562 201.851562 57.992188 L 201.890625 58.007812 C 201.972656 58.042969 202.046875 58.070312 202.125 58.101562 C 202.128906 58.101562 202.140625 58.105469 202.160156 58.113281 C 202.179688 58.117188 202.210938 58.128906 202.238281 58.132812 L 202.261719 58.140625 C 202.339844 58.164062 202.425781 58.191406 202.507812 58.207031 C 202.550781 58.21875 202.59375 58.226562 202.632812 58.238281 L 202.664062 58.242188 C 202.742188 58.257812 202.816406 58.269531 202.894531 58.28125 C 202.949219 58.289062 203 58.292969 203.058594 58.300781 C 203.136719 58.304688 203.210938 58.3125 203.277344 58.316406 C 203.3125 58.316406 203.347656 58.316406 203.382812 58.316406 L 203.476562 58.316406 C 203.550781 58.316406 203.609375 58.316406 203.664062 58.3125 C 203.738281 58.304688 203.8125 58.300781 203.886719 58.289062 L 203.90625 58.289062 C 203.953125 58.28125 204.003906 58.277344 204.050781 58.269531 C 204.128906 58.257812 204.207031 58.242188 204.285156 58.226562 L 204.316406 58.21875 C 204.34375 58.214844 204.371094 58.207031 204.398438 58.203125 C 204.410156 58.203125 204.4375 58.191406 204.445312 58.1875 C 204.5 58.167969 204.570312 58.152344 204.636719 58.128906 L 204.660156 58.121094 L 204.707031 58.113281 C 204.746094 58.101562 204.785156 58.082031 204.824219 58.070312 C 204.871094 58.054688 204.910156 58.039062 204.953125 58.019531 L 204.992188 58.003906 L 205.039062 57.984375 C 205.089844 57.964844 205.140625 57.941406 205.191406 57.917969 C 205.21875 57.90625 205.242188 57.890625 205.269531 57.871094 L 205.300781 57.855469 C 205.390625 57.808594 205.464844 57.769531 205.53125 57.722656 C 205.554688 57.710938 205.570312 57.695312 205.589844 57.683594 C 205.589844 57.683594 205.605469 57.671875 205.605469 57.671875 C 205.683594 57.621094 205.769531 57.566406 205.84375 57.507812 C 205.871094 57.484375 205.894531 57.46875 205.917969 57.445312 L 205.945312 57.421875 L 205.96875 57.40625 C 206.023438 57.359375 206.082031 57.3125 206.132812 57.261719 C 206.183594 57.21875 206.226562 57.164062 206.277344 57.113281 L 206.328125 57.0625 C 206.351562 57.039062 206.375 57.019531 206.398438 56.988281 C 206.460938 56.914062 206.523438 56.839844 206.578125 56.765625 L 206.597656 56.75 C 206.613281 56.734375 206.628906 56.710938 206.640625 56.691406 C 206.6875 56.628906 206.730469 56.5625 206.769531 56.492188 L 206.78125 56.476562 L 206.800781 56.449219 C 206.816406 56.417969 206.832031 56.398438 206.851562 56.367188 C 206.878906 56.316406 206.90625 56.269531 206.929688 56.21875 L 206.976562 56.140625 C 206.996094 56.101562 207.019531 56.054688 207.039062 56.015625 C 207.054688 55.976562 207.070312 55.933594 207.089844 55.894531 L 207.105469 55.855469 C 207.140625 55.769531 207.167969 55.707031 207.191406 55.632812 C 207.195312 55.628906 207.203125 55.609375 207.207031 55.59375 C 207.210938 55.582031 207.210938 55.570312 207.21875 55.558594 C 207.222656 55.554688 207.222656 55.542969 207.230469 55.535156 L 216.992188 26.097656 L 217.910156 23.332031 C 217.910156 23.324219 217.914062 23.3125 217.914062 23.308594 C 217.921875 23.296875 217.921875 23.285156 217.925781 23.273438 C 217.976562 23.164062 218.085938 23.089844 218.203125 23.089844 C 218.324219 23.089844 218.4375 23.164062 218.480469 23.273438 C 218.488281 23.285156 218.488281 23.296875 218.492188 23.308594 C 218.492188 23.3125 218.496094 23.324219 218.496094 23.332031 L 219.238281 25.570312 L 229.171875 55.535156 C 229.179688 55.546875 229.179688 55.554688 229.183594 55.566406 C 229.1875 55.578125 229.1875 55.585938 229.195312 55.597656 C 229.199219 55.609375 229.207031 55.632812 229.210938 55.644531 C 229.234375 55.714844 229.269531 55.792969 229.296875 55.867188 L 229.3125 55.902344 C 229.332031 55.933594 229.34375 55.976562 229.359375 56.007812 C 229.382812 56.058594 229.410156 56.105469 229.433594 56.15625 L 229.449219 56.191406 L 229.464844 56.230469 C 229.488281 56.277344 229.511719 56.324219 229.539062 56.367188 C 229.558594 56.402344 229.578125 56.429688 229.601562 56.460938 L 229.625 56.492188 L 229.640625 56.523438 C 229.675781 56.578125 229.714844 56.636719 229.753906 56.691406 C 229.773438 56.714844 229.792969 56.746094 229.8125 56.765625 L 229.835938 56.796875 L 229.851562 56.816406 C 229.898438 56.882812 229.949219 56.9375 230 56.996094 C 230.027344 57.027344 230.054688 57.058594 230.089844 57.089844 L 230.121094 57.125 L 230.15625 57.160156 C 230.191406 57.199219 230.230469 57.234375 230.265625 57.269531 C 230.332031 57.332031 230.40625 57.386719 230.472656 57.449219 L 230.492188 57.46875 C 230.507812 57.484375 230.53125 57.5 230.554688 57.519531 C 230.636719 57.582031 230.722656 57.636719 230.808594 57.703125 C 230.832031 57.71875 230.847656 57.730469 230.863281 57.742188 C 230.945312 57.785156 231.023438 57.832031 231.101562 57.878906 L 231.128906 57.894531 C 231.152344 57.90625 231.175781 57.921875 231.203125 57.933594 C 231.261719 57.964844 231.316406 57.984375 231.375 58.007812 L 231.40625 58.027344 L 231.449219 58.042969 C 231.488281 58.058594 231.53125 58.078125 231.570312 58.09375 C 231.613281 58.113281 231.65625 58.121094 231.695312 58.132812 L 231.734375 58.144531 C 231.816406 58.167969 231.882812 58.195312 231.957031 58.214844 C 231.960938 58.214844 231.980469 58.21875 231.996094 58.226562 C 232.023438 58.230469 232.054688 58.238281 232.082031 58.242188 L 232.109375 58.25 C 232.1875 58.265625 232.269531 58.28125 232.347656 58.292969 C 232.390625 58.300781 232.4375 58.304688 232.484375 58.3125 L 232.511719 58.316406 C 232.585938 58.328125 232.660156 58.332031 232.730469 58.339844 C 232.789062 58.34375 232.84375 58.34375 232.902344 58.34375 C 232.902344 58.34375 232.925781 58.34375 232.925781 58.34375 L 233.015625 58.34375 C 233.050781 58.34375 233.082031 58.34375 233.117188 58.34375 C 233.183594 58.34375 233.257812 58.339844 233.328125 58.328125 C 233.398438 58.324219 233.449219 58.316406 233.5 58.3125 C 233.582031 58.300781 233.65625 58.289062 233.734375 58.269531 L 233.769531 58.265625 C 233.808594 58.257812 233.847656 58.25 233.886719 58.242188 C 233.972656 58.226562 234.050781 58.195312 234.136719 58.175781 L 234.160156 58.167969 C 234.1875 58.164062 234.214844 58.152344 234.238281 58.144531 C 234.25 58.140625 234.273438 58.132812 234.28125 58.128906 C 234.351562 58.105469 234.425781 58.070312 234.503906 58.042969 L 234.539062 58.027344 C 234.578125 58.007812 234.609375 57.996094 234.652344 57.980469 C 234.695312 57.957031 234.746094 57.933594 234.792969 57.90625 L 234.828125 57.890625 L 234.867188 57.871094 C 234.910156 57.847656 234.960938 57.820312 235.007812 57.792969 C 235.035156 57.773438 235.0625 57.757812 235.09375 57.742188 L 235.125 57.71875 L 235.15625 57.703125 C 235.214844 57.660156 235.277344 57.621094 235.339844 57.574219 C 235.363281 57.558594 235.378906 57.542969 235.402344 57.53125 L 235.421875 57.511719 C 235.492188 57.457031 235.566406 57.398438 235.640625 57.335938 C 235.664062 57.3125 235.691406 57.292969 235.714844 57.269531 L 235.742188 57.238281 L 235.769531 57.210938 C 235.820312 57.164062 235.867188 57.113281 235.914062 57.070312 C 235.957031 57.023438 235.996094 56.972656 236.039062 56.921875 L 236.066406 56.886719 L 236.09375 56.859375 C 236.117188 56.828125 236.140625 56.808594 236.160156 56.777344 C 236.21875 56.703125 236.269531 56.625 236.320312 56.550781 L 236.335938 56.527344 C 236.355469 56.503906 236.367188 56.480469 236.382812 56.460938 C 236.421875 56.398438 236.460938 56.328125 236.496094 56.261719 L 236.507812 56.238281 L 236.523438 56.203125 C 236.542969 56.175781 236.558594 56.144531 236.570312 56.113281 C 236.59375 56.058594 236.613281 56.015625 236.636719 55.964844 L 236.652344 55.921875 L 236.671875 55.890625 C 236.695312 55.84375 236.710938 55.792969 236.734375 55.746094 C 236.75 55.707031 236.761719 55.671875 236.773438 55.632812 L 236.785156 55.59375 C 236.8125 55.511719 236.835938 55.441406 236.859375 55.359375 C 236.859375 55.355469 236.863281 55.335938 236.871094 55.324219 C 236.871094 55.3125 236.875 55.304688 236.875 55.292969 C 236.875 55.28125 236.878906 55.273438 236.878906 55.261719 L 246.039062 18.886719 C 246.042969 18.875 246.042969 18.859375 246.042969 18.847656 C 246.050781 18.828125 246.054688 18.808594 246.0625 18.789062 C 246.316406 17.707031 246.15625 16.628906 245.613281 15.707031 Z M 245.613281 15.707031 " fill-opacity="1" fill-rule="nonzero"/></g><g clip-path="url(#fb789cb381)"><path fill="#323232" d="M 301.105469 52.761719 C 301.101562 52.714844 301.09375 52.671875 301.074219 52.628906 L 290.046875 27.421875 L 284.570312 14.894531 L 280.363281 5.277344 C 280.351562 5.253906 280.339844 5.230469 280.328125 5.207031 C 280.289062 5.121094 280.257812 5.058594 280.222656 4.996094 C 280.195312 4.941406 280.164062 4.890625 280.132812 4.835938 C 280.097656 4.78125 280.058594 4.722656 280.023438 4.667969 C 279.992188 4.617188 279.949219 4.558594 279.910156 4.507812 C 279.871094 4.457031 279.832031 4.40625 279.792969 4.351562 C 279.753906 4.300781 279.707031 4.25 279.667969 4.203125 C 279.621094 4.152344 279.578125 4.109375 279.53125 4.0625 C 279.488281 4.015625 279.441406 3.972656 279.390625 3.925781 C 279.339844 3.878906 279.292969 3.839844 279.242188 3.800781 C 279.191406 3.761719 279.140625 3.722656 279.089844 3.679688 C 279.039062 3.640625 278.988281 3.605469 278.933594 3.574219 C 278.875 3.53125 278.820312 3.5 278.761719 3.464844 C 278.710938 3.429688 278.65625 3.402344 278.605469 3.375 C 278.542969 3.339844 278.472656 3.304688 278.410156 3.277344 C 278.371094 3.253906 278.347656 3.242188 278.328125 3.230469 C 278.304688 3.21875 278.28125 3.214844 278.265625 3.207031 C 278.183594 3.175781 278.117188 3.152344 278.054688 3.128906 C 277.992188 3.105469 277.9375 3.089844 277.875 3.066406 C 277.8125 3.046875 277.75 3.03125 277.6875 3.015625 C 277.617188 2.996094 277.558594 2.980469 277.488281 2.96875 C 277.433594 2.957031 277.371094 2.945312 277.3125 2.941406 C 277.238281 2.929688 277.171875 2.917969 277.105469 2.910156 C 277.042969 2.90625 276.984375 2.902344 276.921875 2.902344 C 276.84375 2.894531 276.78125 2.894531 276.71875 2.894531 C 276.65625 2.894531 276.59375 2.902344 276.53125 2.902344 C 276.453125 2.90625 276.394531 2.90625 276.335938 2.910156 C 276.265625 2.917969 276.199219 2.929688 276.128906 2.941406 C 276.066406 2.953125 276.007812 2.957031 275.949219 2.96875 C 275.882812 2.980469 275.820312 2.996094 275.75 3.015625 C 275.6875 3.03125 275.625 3.046875 275.566406 3.066406 C 275.503906 3.082031 275.445312 3.105469 275.390625 3.121094 C 275.320312 3.144531 275.253906 3.175781 275.191406 3.195312 C 275.15625 3.207031 275.132812 3.21875 275.113281 3.226562 C 275.089844 3.238281 275.066406 3.246094 275.042969 3.257812 C 274.964844 3.300781 274.898438 3.332031 274.835938 3.367188 C 274.777344 3.394531 274.726562 3.425781 274.675781 3.457031 C 274.621094 3.492188 274.5625 3.53125 274.507812 3.566406 C 274.457031 3.601562 274.398438 3.640625 274.347656 3.675781 C 274.296875 3.714844 274.246094 3.753906 274.195312 3.792969 C 274.144531 3.835938 274.09375 3.878906 274.046875 3.921875 C 273.996094 3.964844 273.953125 4.011719 273.90625 4.058594 C 273.859375 4.101562 273.816406 4.148438 273.769531 4.199219 C 273.726562 4.25 273.683594 4.296875 273.644531 4.347656 C 273.605469 4.398438 273.566406 4.449219 273.527344 4.5 C 273.488281 4.550781 273.453125 4.605469 273.417969 4.660156 C 273.378906 4.71875 273.347656 4.773438 273.3125 4.832031 C 273.277344 4.882812 273.25 4.941406 273.222656 4.992188 C 273.1875 5.054688 273.152344 5.121094 273.125 5.183594 C 273.101562 5.226562 273.089844 5.246094 273.078125 5.269531 L 268.875 14.886719 L 265.757812 22.015625 L 252.367188 52.628906 C 252.347656 52.675781 252.335938 52.722656 252.332031 52.769531 C 251.953125 53.714844 251.945312 54.757812 252.320312 55.714844 C 252.707031 56.714844 253.457031 57.5 254.429688 57.933594 C 254.941406 58.164062 255.484375 58.277344 256.039062 58.277344 C 257.625 58.277344 259.054688 57.335938 259.695312 55.878906 C 259.746094 55.757812 259.796875 55.632812 259.835938 55.496094 L 266.035156 41.320312 L 266.621094 39.976562 C 266.632812 39.941406 266.652344 39.914062 266.660156 39.878906 C 266.785156 39.648438 267.023438 39.488281 267.300781 39.488281 L 286.160156 39.488281 C 286.4375 39.488281 286.679688 39.652344 286.800781 39.878906 L 293.628906 55.492188 C 293.675781 55.621094 293.722656 55.746094 293.773438 55.871094 C 294.410156 57.332031 295.84375 58.269531 297.429688 58.269531 C 297.984375 58.269531 298.519531 58.15625 299.035156 57.929688 C 300.007812 57.496094 300.761719 56.710938 301.144531 55.707031 C 301.492188 54.757812 301.484375 53.714844 301.105469 52.761719 Z M 282.785156 31.523438 L 282.761719 31.570312 C 282.632812 31.761719 282.414062 31.886719 282.167969 31.886719 L 271.261719 31.886719 C 271.015625 31.886719 270.792969 31.761719 270.664062 31.570312 L 270.640625 31.523438 C 270.578125 31.414062 270.539062 31.285156 270.539062 31.148438 C 270.539062 31.050781 270.554688 30.957031 270.589844 30.875 C 270.59375 30.863281 270.601562 30.851562 270.601562 30.84375 L 271.097656 29.707031 L 275.894531 18.75 L 276.429688 17.523438 L 276.449219 17.492188 C 276.5 17.382812 276.605469 17.3125 276.726562 17.3125 C 276.84375 17.3125 276.949219 17.382812 277.003906 17.492188 C 277.003906 17.496094 277.011719 17.519531 277.019531 17.523438 L 277.652344 18.976562 L 282.855469 30.875 C 282.886719 30.957031 282.90625 31.050781 282.90625 31.148438 C 282.886719 31.289062 282.847656 31.414062 282.785156 31.523438 Z M 282.785156 31.523438 " fill-opacity="1" fill-rule="nonzero"/></g></svg>