<?xml version="1.0" encoding="utf-8"?>
<!-- Generator: Adobe Illustrator 26.3.1, SVG Export Plug-In . SVG Version: 6.00 Build 0)  -->
<svg version="1.1" id="レイヤー_1" xmlns="http://www.w3.org/2000/svg" xmlns:xlink="http://www.w3.org/1999/xlink" x="0px"
	 y="0px" viewBox="0 0 245.05 155.91" style="enable-background:new 0 0 245.05 155.91;" xml:space="preserve">
<style type="text/css">
	.st0{fill:#CBC164;}
	.st1{fill:#FFF9F9;}
	.st2{fill:#FFFFFF;}
	.st3{fill:#D6D3D0;}
	.st4{fill:#222222;}
	.st5{fill:#313232;}
	.st6{fill:#252525;}
	.st7{fill:#323232;}
	.st8{fill:none;stroke:#000000;stroke-width:5;stroke-linecap:round;stroke-linejoin:round;stroke-miterlimit:10;}
	.st9{fill:#FFFFFF;stroke:#000000;stroke-width:5;stroke-linecap:round;stroke-linejoin:round;stroke-miterlimit:10;}
	.st10{fill:#F8EDD8;}
	.st11{fill:#F9EFDB;}
	.st12{fill:#202020;}
	.st13{fill:#D8D4D1;}
	.st14{fill:#D57869;}
	.st15{fill:#9C99A4;}
	.st16{fill:#FDF8F9;}
</style>
<path class="st0" d="M168.78,60.92c5.84-8.34,3.97-19.37,3.46-23.49c-0.51-4.13-3.4-12.15-7.33-12.44
	c-3.93-0.29-7.25,4.95-9.44,13.13s-0.2,18.18-0.2,18.18L168.78,60.92z"/>
<path class="st5" d="M165.82,61.61c-0.21-0.9,0.33-1.8,1.2-2.07c0.89-0.62,3.11-4.98,3.43-10.68c0.34-5.96-0.25-11.59-1.66-15.85
	c-1.2-3.63-2.89-5.85-4.51-5.94c-1.62-0.09-3.55,1.92-5.16,5.39c-1.88,4.08-3.11,9.6-3.44,15.57c-0.35,6.26,0.63,7.14,0.94,7.26
	c0.9,0.35,1.35,1.37,0.99,2.27c-0.35,0.9-1.37,1.35-2.27,0.99c-2.62-1.03-3.54-4.14-3.16-10.72c0.36-6.39,1.7-12.37,3.76-16.84
	c2.3-4.97,5.33-7.61,8.54-7.42c3.21,0.18,5.92,3.14,7.65,8.34c1.55,4.67,2.2,10.76,1.84,17.16c-0.34,5.99-2.9,13.15-6.04,13.87
	c-0.08,0.02-0.16,0.03-0.24,0.04C166.82,63.04,166.02,62.47,165.82,61.61z M167.14,59.51C167.14,59.51,167.14,59.51,167.14,59.51
	C167.14,59.51,167.14,59.51,167.14,59.51z"/>
<path class="st0" d="M76.2,60.92c-5.84-8.34-3.97-19.37-3.46-23.49s3.4-12.15,7.33-12.44s7.25,4.95,9.44,13.13s0.2,18.18,0.2,18.18
	L76.2,60.92z"/>
<path class="st5" d="M77.3,62.96c-0.08-0.01-0.16-0.02-0.24-0.04c-3.14-0.72-5.7-7.88-6.04-13.87c-0.36-6.39,0.29-12.49,1.84-17.16
	c1.72-5.2,4.44-8.16,7.65-8.34c3.21-0.18,6.24,2.45,8.54,7.42c2.06,4.47,3.4,10.45,3.76,16.84c0.37,6.59-0.54,9.7-3.16,10.72
	c-0.9,0.35-1.92-0.09-2.27-0.99c-0.35-0.9,0.09-1.92,0.99-2.27c0.31-0.12,1.3-1.01,0.94-7.26c-0.34-5.96-1.56-11.49-3.44-15.57
	c-1.6-3.47-3.53-5.48-5.16-5.39c-1.62,0.09-3.31,2.31-4.51,5.94c-1.41,4.26-2,9.89-1.66,15.85c0.32,5.69,2.55,10.05,3.43,10.68
	c0.87,0.26,1.41,1.16,1.2,2.07C78.96,62.47,78.16,63.04,77.3,62.96z M77.84,59.51C77.84,59.51,77.84,59.51,77.84,59.51
	C77.84,59.51,77.84,59.51,77.84,59.51z"/>
<path class="st16" d="M36.87,155.91c-0.08-17.58,0.27-33.23,1.58-38.75c3.57-15,10.27-63.85,82.35-63.85s81.8,41.55,86.2,62.63
	c1.56,7.49,2.03,23.03,1.98,39.96"/>
<path class="st2" d="M88.45,107.43c0,0,0-14.64,0-18.51s3.36-7.02,7.29-7.02c3.94,0,8.31,0,11.68,0c3.36,0,6.47,3.03,6.47,6.2
	s0,19.34,0,19.34H88.45z"/>
<path class="st3" d="M79.62,138.08c0,0,0-13.32,0-16.56c0-3.24,3.1-14.75,15.04-14.75s49.31,0,56.36,0
	c7.06,0,14.51,6.19,14.51,12.66c0,6.47,0,13.99,0,16.84c0,2.85-1.33,8.09-6.81,8.09c-5.49,0-70.17,0-73.08,0
	S79.62,140.94,79.62,138.08z"/>
<path class="st2" d="M131.45,107.43c0,0,0-14.64,0-18.51s3.36-7.02,7.29-7.02c3.94,0,8.31,0,11.68,0c3.36,0,6.47,3.03,6.47,6.2
	s0,19.34,0,19.34H131.45z"/>
<path class="st5" d="M159.29,145.82H86.22c-4.33,0-7.85-3.79-7.85-8.45v-15.82c0-8.87,6.71-16.09,14.96-16.09h58.85
	c8.25,0,14.96,7.22,14.96,16.09v15.82C167.14,142.03,163.62,145.82,159.29,145.82z M93.33,108.76c-6.56,0-11.9,5.74-11.9,12.8v15.82
	c0,2.84,2.15,5.15,4.79,5.15h73.06c2.64,0,4.79-2.31,4.79-5.15v-15.82c0-7.06-5.34-12.8-11.9-12.8H93.33z"/>
<path class="st5" d="M135.84,134.21L135.84,134.21c-1.88,0-3.43-1.54-3.43-3.43v-11.21c0-1.88,1.54-3.43,3.43-3.43h0
	c1.88,0,3.43,1.54,3.43,3.43v11.21C139.26,132.67,137.72,134.21,135.84,134.21z"/>
<path class="st5" d="M111.23,134.21L111.23,134.21c-1.88,0-3.43-1.54-3.43-3.43v-11.21c0-1.88,1.54-3.43,3.43-3.43h0
	c1.88,0,3.43,1.54,3.43,3.43v11.21C114.66,132.67,113.12,134.21,111.23,134.21z"/>
<path class="st5" d="M35.06,155.91c0-2.38,0-4.65,0.01-6.81c0-2.18,0.01-4.25,0.01-6.19c0-17.67,2.31-32.89,6.87-45.24
	C46.2,86.14,52.57,76.7,60.87,69.61c14.1-12.04,34.35-17.9,61.88-17.9c27.55,0,47.79,5.86,61.9,17.9
	c8.31,7.09,14.68,16.54,18.93,28.07c4.56,12.35,6.87,27.57,6.87,45.24c0,1.94,0,4,0.01,6.19c0,2.15,0.01,4.43,0.01,6.81
	 M207.09,155.91c0-2.38,0-4.66-0.01-6.8c0-2.18-0.01-4.25-0.01-6.19c0-17.24-2.24-32.03-6.65-43.98
	c-4.05-10.96-10.08-19.92-17.93-26.62c-13.48-11.51-33.02-17.1-59.74-17.1c-26.74,0-46.28,5.6-59.75,17.1
	c-7.85,6.7-13.88,15.66-17.93,26.62c-4.41,11.95-6.65,26.74-6.65,43.98c0,1.94,0,4.01-0.01,6.19c0,2.14-0.01,4.42-0.01,6.8"/>
<path class="st5" d="M166.58,61.17c0,0,10.63-8.5,17.12-13.03c6.48-4.53,14.3-5.02,19.89,0.18c6.04,5.61,20.05,18.65,23.65,22.43
	c4.5,4.72-5.86,13.41-25.29,10.96C182.52,79.25,166.58,61.17,166.58,61.17z"/>
<g>
	<path class="st5" d="M115.84,107.43h-3.29V89.34c0-3.28-2.67-5.95-5.95-5.95H96.09c-3.28,0-5.95,2.67-5.95,5.95v18.08h-3.29V89.34
		c0-5.1,4.15-9.24,9.24-9.24h10.51c5.1,0,9.24,4.15,9.24,9.24V107.43z"/>
</g>
<g>
	<path class="st5" d="M158.66,107.43h-3.29V89.34c0-3.28-2.67-5.95-5.95-5.95h-10.51c-3.28,0-5.95,2.67-5.95,5.95v18.08h-3.29V89.34
		c0-5.1,4.15-9.24,9.24-9.24h10.51c5.1,0,9.24,4.15,9.24,9.24V107.43z"/>
</g>
<path class="st5" d="M78.48,61.17c0,0-10.63-8.5-17.12-13.03s-14.3-5.02-19.89,0.18c-6.04,5.61-20.05,18.65-23.65,22.43
	c-4.5,4.72,5.86,13.41,25.29,10.96C62.53,79.25,78.48,61.17,78.48,61.17z"/>
<path class="st7" d="M102.74,81.89H99.6c-1.99,0-3.59,1.61-3.59,3.59v6.37c0,1.99,1.61,3.59,3.59,3.59h3.13
	c1.99,0,3.59-1.61,3.59-3.59v-6.37C106.33,83.5,104.72,81.89,102.74,81.89z"/>
<path class="st7" d="M145.73,81.89h-3.13c-1.99,0-3.59,1.61-3.59,3.59v6.37c0,1.99,1.61,3.59,3.59,3.59h3.13
	c1.99,0,3.59-1.61,3.59-3.59v-6.37C149.33,83.5,147.72,81.89,145.73,81.89z"/>
</svg>
